<?xml version="1.0" encoding="UTF-8"?>
<svg id="Livello_1" data-name="Livello 1" xmlns="http://www.w3.org/2000/svg" viewBox="0 0 638.71 225.5">
  <defs>
    <style>
      .cls-1 {
        fill: #b89e14;
      }
    </style>
  </defs>
  <rect id="Basso" class="cls-1" y="168.5" width="638.71" height="13.52"/>
  <rect id="Alto_SX" data-name="Alto SX" class="cls-1" y="85.42" width="335.82" height="13.52"/>
  <rect id="Alto_DX" data-name="Alto DX" class="cls-1" x="380.03" y="85.42" width="258.68" height="13.52"/>
  <g>
    <path class="cls-1" d="M407.81,86.02v-35.5h6.69v35.5h-6.69ZM410.86,72.25v-6.45h11.35c1.2,0,2.18-.4,2.93-1.21.75-.81,1.12-1.87,1.12-3.19s-.37-2.43-1.11-3.23-1.72-1.21-2.94-1.21h-11.35v-6.45h11.18c2.25,0,4.2.45,5.87,1.35,1.67.9,2.96,2.17,3.89,3.8.93,1.63,1.39,3.54,1.39,5.74s-.46,4.09-1.39,5.71c-.93,1.63-2.23,2.89-3.91,3.78-1.68.9-3.63,1.34-5.86,1.34h-11.18Z"/>
    <path class="cls-1" d="M444.11,86.39c-2.7,0-4.73-.64-6.08-1.93-1.35-1.29-2.03-3.25-2.03-5.91s.75-4.41,2.26-5.65c1.51-1.25,3.76-1.87,6.78-1.87h6.35l.34,5.1h-6.67c-1.01,0-1.77.2-2.27.6-.5.4-.76,1.01-.76,1.82s.32,1.44.96,1.84c.64.4,1.6.6,2.87.6,1.77,0,3.1-.2,3.98-.61.88-.41,1.32-1.04,1.32-1.9l.51,3.69c-.1.96-.53,1.75-1.29,2.38-.77.63-1.71,1.09-2.82,1.39-1.12.3-2.27.45-3.46.45ZM451.17,86.02v-16.06c0-1.17-.39-2.08-1.17-2.71s-1.89-.95-3.32-.95c-.94,0-1.88.15-2.81.45-.93.3-1.75.74-2.47,1.31l-4.15-4.08c1.01-1.16,2.34-2.05,4-2.7,1.66-.64,3.5-.96,5.52-.96,3.34,0,5.92.82,7.74,2.47,1.82,1.64,2.73,3.96,2.73,6.96v16.28h-6.08Z"/>
    <path class="cls-1" d="M463.84,86.02v-25.34h6.69v25.34h-6.69ZM478.48,86.02v-15.36c0-1.25-.35-2.22-1.06-2.89-.71-.68-1.71-1.01-3.01-1.01s-2.19.35-2.87,1.04c-.68.69-1.01,1.66-1.01,2.92l-.51-5.62c.73-1.53,1.62-2.71,2.67-3.54,1.05-.83,2.41-1.25,4.09-1.25,2.67,0,4.74.9,6.2,2.7,1.46,1.8,2.2,4.34,2.2,7.63v15.38h-6.69Z"/>
    <path class="cls-1" d="M491.4,57.21v-6.69h6.69v6.69h-6.69ZM491.4,86.02v-25.34h6.69v25.34h-6.69Z"/>
    <path class="cls-1" d="M502.36,66.39v-5.71h13.65v5.71h-13.65ZM505.05,86.02v-28.78c0-2.23.51-3.91,1.54-5.03s2.62-1.68,4.79-1.68h4.64v5.96h-2.83c-.5,0-.87.19-1.1.57-.23.38-.34.83-.34,1.35v27.61h-6.69Z"/>
    <path class="cls-1" d="M520.53,57.21v-6.69h6.69v6.69h-6.69ZM520.53,86.02v-25.34h6.69v25.34h-6.69Z"/>
    <path class="cls-1" d="M544.16,86.39c-3.63,0-6.45-1.03-8.45-3.08s-3-4.94-3-8.67v-2.71c0-3.69,1-6.56,3-8.58s4.82-3.04,8.45-3.04c2.08,0,3.97.35,5.65,1.05,1.69.7,3.02,1.7,4.02,3l-4.32,4.2c-.6-.57-1.32-1.01-2.16-1.33-.84-.32-1.71-.48-2.62-.48-1.69,0-3,.45-3.93,1.35s-1.39,2.18-1.39,3.82v2.71c0,1.69.46,3,1.39,3.92.93.92,2.24,1.38,3.93,1.38.91,0,1.79-.17,2.62-.51.84-.34,1.56-.83,2.16-1.46l4.32,4.44c-.99,1.27-2.33,2.25-4.02,2.94-1.68.69-3.57,1.04-5.65,1.04Z"/>
    <path class="cls-1" d="M557.98,57.21v-6.69h6.69v6.69h-6.69ZM557.98,86.02v-25.34h6.69v25.34h-6.69Z"/>
    <path class="cls-1" d="M581.1,86.39c-3.48,0-6.18-.96-8.08-2.89s-2.86-4.64-2.86-8.14v-4.13c0-3.47.95-6.15,2.86-8.06s4.6-2.86,8.08-2.86,6.18.95,8.08,2.86,2.86,4.59,2.86,8.06v4.2c0,3.48-.95,6.18-2.86,8.09-1.9,1.91-4.6,2.87-8.08,2.87ZM581.07,79.94c1.35,0,2.4-.39,3.15-1.18.75-.79,1.12-1.9,1.12-3.33v-4.2c0-1.42-.38-2.51-1.12-3.3-.75-.78-1.8-1.17-3.15-1.17s-2.37.39-3.11,1.17c-.74.78-1.11,1.88-1.11,3.3v4.2c0,1.43.37,2.54,1.11,3.33.74.79,1.78,1.18,3.11,1.18Z"/>
  </g>
  <g>
    <path class="cls-1" d="M50.08,135.5c0,6,2.3,11.2,6.9,15.6,4.6,4.4,10.67,7.4,18.2,9,7.53,1.6,13.3,2.4,17.3,2.4,14.13,0,24-3.2,29.6-9.6,5.6-6.4,8.4-11.33,8.4-14.8,0-5.2-1.7-9.93-5.1-14.2-3.4-4.27-6.6-8.07-9.6-11.4-3-3.33-5.9-6.4-8.7-9.2s-5.4-5.43-7.8-7.9c-2.4-2.47-4.3-4.47-5.7-6-1.4-1.53-2.77-3.17-4.1-4.9-1.33-1.73-2.37-3.33-3.1-4.8-.73-1.47-1.47-3.27-2.2-5.4-.73-2.13-1.1-4.13-1.1-6,0-5.33,2.47-11.33,7.4-18,4.93-6.67,10.9-11.17,17.9-13.5,7-2.33,15.17-3.5,24.5-3.5h12.8l-3.4,22.2c-.4,3.2-1.53,4.8-3.4,4.8-1.2,0-1.8-1.53-1.8-4.6l.6-4.33c0-2.76-.73-4.6-2.2-5.52-1.47-.92-3.53-1.64-6.2-2.17-2.67-.52-5.27-.85-7.8-.98-2.53-.13-3.87-.2-4-.2-7.87,0-13.6,1.9-17.2,5.7-3.6,3.8-5.4,7.7-5.4,11.7,0,2.53.6,4.87,1.8,7,1.2,2.13,2.07,3.6,2.6,4.4.53.8,1.4,1.8,2.6,3,1.2,1.2,2.3,2.3,3.3,3.3s2.3,2.1,3.9,3.3l7.2,6c18.53,15.6,27.8,29.47,27.8,41.6,0,11.07-5.5,20.03-16.5,26.9-11,6.87-20.43,11.3-28.3,13.3-7.87,2-15.47,3-22.8,3-11.07,0-20.27-2.2-27.6-6.6-7.33-4.4-11-11.13-11-20.2,0-3.07.47-5.97,1.4-8.7.93-2.73,2.6-5.93,5-9.6,2.4-3.67,4.97-6.87,7.7-9.6s4.5-4.23,5.3-4.5c.8,0,1.2.6,1.2,1.8-.27,1.07-1.73,3.4-4.4,7-2.67,3.6-4,8.33-4,14.2Z"/>
    <path class="cls-1" d="M154.68,161.3c0-2.53.83-4.77,2.5-6.7,1.67-1.93,3.7-2.9,6.1-2.9,1.6,0,3.43.53,5.5,1.6,2.07,1.07,3.1,3.27,3.1,6.6,0,2.4-.87,4.6-2.6,6.6-1.73,2-3.73,3-6,3-1.47,0-2.73-.33-3.8-1-3.2-1.47-4.8-3.87-4.8-7.2Z"/>
    <path class="cls-1" d="M203.08,109.9c.4.8.6,1.47.6,2-3.87,7.73-5.8,14.67-5.8,20.8s1.63,11.3,4.9,15.5c3.27,4.2,7.73,7.43,13.4,9.7,5.67,2.27,11.97,3.4,18.9,3.4,5.2,0,10.83-.77,16.9-2.31,6.07-1.54,12.03-3.71,17.9-6.52,5.6-3.07,11.87-7.72,18.8-13.94,6.93-6.22,12.97-12.21,18.1-17.96,5.13-5.75,9.13-10.33,12-13.74,2.87-3.41,5.37-6.52,7.5-9.33,2.13-2.81,4.67-6.32,7.6-10.53,2.93-4.21,5.27-7.59,7-10.13l12.6-18.86c5.87-8.69,12.13-16.38,18.8-23.07h1.6c1.07,0,2.33.53,3.8,1.6,1.2,1.2,1.8,2.47,1.8,3.8-11.73,13.73-20.6,25.23-26.6,34.5-6,9.27-9.87,15.23-11.6,17.9-1.73,2.67-4.07,5.93-7,9.8-2.93,3.87-5.83,7.5-8.7,10.9-2.87,3.4-7.07,7.87-12.6,13.4-5.53,5.54-11.7,11.17-18.5,16.9-6.8,5.73-12.37,10.13-16.7,13.2-4.33,3.07-9.5,6.33-15.5,9.8s-12.5,6.27-19.5,8.4c-7,2.13-13.63,3.2-19.9,3.2-7.6,0-14.1-1.47-19.5-4.4-5.4-2.93-9.6-6.9-12.6-11.9s-4.5-10.7-4.5-17.1c0-9.47,3.33-19.13,10-29,3.07-4,5.33-6,6.8-6ZM383.68,35.1c0,1.33-.4,2.63-1.2,3.9-.8,1.27-1.6,1.9-2.4,1.9-17.73-2.27-32.2-3.4-43.4-3.4-35.07,0-52.6,9.53-52.6,28.6,0,8.4,3.07,18.13,9.2,29.2,0,1.07-1,1.6-3,1.6-.53,0-.9-.07-1.1-.2-.2-.13-2.93-4.23-8.2-12.3-5.27-8.07-7.9-17.3-7.9-27.7,0-9.73,4.5-16.7,13.5-20.9,9-4.2,22.3-6.3,39.9-6.3,12.27,0,31,1.33,56.2,4,.67.67,1,1.2,1,1.6ZM327.08,104.1l42,.6-2,5.6-44.6,1.2,4.6-7.4ZM393.48,34.9l-.6,6.62-2,10.84-6.4,33.12-9.6,49.77-1.4,9.83c0,4.15,1.13,6.22,3.4,6.22,2.4,0,6.73-3.33,13-10l1.8,1.4,1.8,1.4c-4.93,6-10.93,11.6-18,16.8-7.07,5.2-11.87,7.8-14.4,7.8-4.8,0-7.2-4.2-7.2-12.6v-5.8c.4-1.87,1.57-9,3.5-21.4,1.93-12.4,3.93-23.87,6-34.4,2.07-10.53,3.77-18.77,5.1-24.7,1.33-5.93,2.5-10.93,3.5-15,1-4.07,1.9-7.53,2.7-10.4.8-2.87,1.46-4.97,2-6.3l2-4.6c9.07,0,14,.47,14.8,1.4Z"/>
    <path class="cls-1" d="M408.47,162.64l-16,7.41,1.2-5.8,2.2-15.39,5-39.17c0-3.33-.4-5-1.2-5-.67,0-2.13.77-4.4,2.3-2.27,1.53-3.93,2.43-5,2.7l-1.2.2-1,.2-.8-.4c0-1.21.47-2.22,1.4-3.03l12-8.48,9.6-6.67c2-1.21,3.67-1.82,5-1.82,1.73,0,2.6,1.8,2.6,5.41l-.6,6.61c-3.2,23.11-5.23,37.61-6.1,43.48-.87,5.88-1.77,11.69-2.7,17.43ZM423.68,105.9c5.07-4.38,10.1-8.17,15.1-11.38,5-3.21,8.5-4.82,10.5-4.82,3.07,0,4.6,3.09,4.6,9.26,0,7.92-2.93,25.29-8.8,52.12,0,3.22.6,4.83,1.8,4.83,2.4,0,6.4-3.27,12-9.8l1.2-.4c.8.13,1.27.27,1.4.4l.4,1.4-.4,1.2c-7.07,8.4-13.17,13.93-18.3,16.6-5.13,2.67-8.7,4-10.7,4-2.4,0-3.6-2.27-3.6-6.8v-3.3c0-.87.27-2.83.8-5.9l2.6-17.4,3.2-22.2c0-5.2-.6-7.8-1.8-7.8-1.47,0-5.17,2.53-11.1,7.6-5.93,5.07-9.7,7.6-11.3,7.6-.67-.67-1-1.2-1-1.6,0-2.4,1.2-4.13,3.6-5.2l9.8-8.4Z"/>
    <path class="cls-1" d="M481.07,162.64l-16,7.41,1.2-5.8,2.2-15.39,5-39.17c0-3.33-.4-5-1.2-5-.67,0-2.13.77-4.4,2.3-2.27,1.53-3.93,2.43-5,2.7l-1.2.2-1,.2-.8-.4c0-1.21.47-2.22,1.4-3.03l12-8.48,9.6-6.67c2-1.21,3.67-1.82,5-1.82,1.73,0,2.6,1.8,2.6,5.41l-.6,6.61c-3.2,23.11-5.23,37.61-6.1,43.48-.87,5.88-1.77,11.69-2.7,17.43ZM496.27,105.9c5.07-4.38,10.1-8.17,15.1-11.38,5-3.21,8.5-4.82,10.5-4.82,3.07,0,4.6,3.09,4.6,9.26,0,7.92-2.93,25.29-8.8,52.12,0,3.22.6,4.83,1.8,4.83,2.4,0,6.4-3.27,12-9.8l1.2-.4c.8.13,1.27.27,1.4.4l.4,1.4-.4,1.2c-7.07,8.4-13.17,13.93-18.3,16.6-5.13,2.67-8.7,4-10.7,4-2.4,0-3.6-2.27-3.6-6.8v-3.3c0-.87.27-2.83.8-5.9l2.6-17.4,3.2-22.2c0-5.2-.6-7.8-1.8-7.8-1.47,0-5.17,2.53-11.1,7.6-5.93,5.07-9.7,7.6-11.3,7.6-.67-.67-1-1.2-1-1.6,0-2.4,1.2-4.13,3.6-5.2l9.8-8.4Z"/>
    <path class="cls-1" d="M572.27,100.3h-4.8c-2.67,0-5.03.57-7.1,1.7-2.07,1.13-4,3.43-5.8,6.9-1.8,3.47-3.4,8.83-4.8,16.1-1.4,7.27-2.1,13.37-2.1,18.3,0,7.07,1.67,10.6,5,10.6,2.8,0,6.13-2.05,10-6.15,3.87-4.1,7.2-8.1,10-12l4.6-5.65c.53.94.8,1.74.8,2.41,0,2.28-.67,4.56-2,6.84-1.33,2.28-3.07,4.49-5.2,6.63l-6.8,7.44c-9.73,10.19-17.33,15.28-22.8,15.28-5.87,0-8.8-5.27-8.8-15.8,0-.93.07-2.37.2-4.3.13-1.93.43-4.37.9-7.3.47-2.93,1.17-6.2,2.1-9.8.93-3.6,2.47-8.23,4.6-13.9,2.13-5.67,5.13-10.6,9-14.8,3.87-4.2,7.4-7.13,10.6-8.8,3.2-1.67,6.6-2.5,10.2-2.5l15.2-1.4c4,0,6,1.02,6,3.06,0,1.09-.37,2.28-1.1,3.57-.73,1.29-1.63,2.21-2.7,2.75l-3.8.82h-11.4ZM588.43,123.49l-3.36,21.41-.8,8.2c0,.8.1,1.37.3,1.7.2.33.37.57.5.7l4.2-3c.93-.93,2-1.87,3.2-2.8,1.2-.93,2.5-1.87,3.9-2.8,1.4-.93,2.57-1.4,3.5-1.4.67.4,1,.73,1,1-.13.4-.33.8-.6,1.2-.27.4-.67.93-1.2,1.6-8.4,7.47-14.47,12.47-18.2,15-3.73,2.93-6.67,4.4-8.8,4.4-2.27,0-3.4-2.47-3.4-7.41l.53-9.41,1.99-16.6,2.32-17.38c.26-3.33.66-6.17,1.19-8.5s1.43-5.07,2.68-8.2c1.26-3.13,2.88-5.7,4.88-7.7,2.25-1.87,4.17-2.8,5.77-2.8,2.93,0,4.4,2.33,4.4,7l-4,25.79Z"/>
  </g>
</svg>