<?xml version="1.0" encoding="UTF-8"?>
<svg id="Livello_1" data-name="Livello 1" xmlns="http://www.w3.org/2000/svg" viewBox="0 0 443.731448237261247 436.624887104127083">
  <defs>
    <style>
      .cls-1 {
        fill: #f2fd14;
      }

      .cls-2 {
        fill: #a4040b;
      }

      .cls-3 {
        fill: #f4ca00;
      }

      .cls-4 {
        fill: #f4f123;
      }

      .cls-5 {
        fill: #ffaa0f;
      }
    </style>
  </defs>
  <g>
    <ellipse class="cls-2" cx="222.132937492976453" cy="215.231413988723261" rx="147.12445068359375" ry="152.311401367187273"/>
    <ellipse class="cls-1" cx="222.132937492977362" cy="215.231413988724171" rx="135.288719389004655" ry="140.058394160584385"/>
  </g>
  <g>
    <path class="cls-3" d="M138.692985385418979,285.945054948469078c.360778808594659,3.1075439453125,3.367156982422784,5.48956298828125,4.729919433594659,6.5693359375,2.850677490235284,2.2586669921875,5.711090087890625,3.0474853515625,6.5712890625,3.27484130859375,16.437164306640625,4.34417724609375,30.216949462890625,3.820068359375,30.217041015625,3.820068359375,33.135986328125-1.26031494140625,34.9993896484375,1.17962646484375,46.773712158202216-2.62774658203125,4.443572998046875-1.4368896484375,18.984771728515625-6.13897705078125,19.050689697265625-12.82977294921875.01361083984375-1.38165283203125-.58209228515625-3.65753173828125-4.59814453125-6.615478515625-10.5220947265625-7.74981689453125-23.318634033202216-4.56414794921875-41.255462646482556-3.94158935546875-28.390411376954944.9853515625-45.005523681641534-5.30633544921875-55.708038330079944,3.15325927734375-1.621154785155341,1.28143310546875-6.273071289061591,4.95843505859375-5.781005859375,9.19708251953125Z"/>
    <path class="cls-5" d="M138.692985385418979,285.945054948469078c.889770507813409-.75970458984375,4.344482421875,3.1810302734375,9.991973876954944,6.06591796875,1.079345703125.55133056640625,4.147430419920056,2.03912353515625,12.343780517577216,3.4815673828125,8.8173828125,1.5517578125,15.927276611328125,1.7060546875,20.233581542967841,1.7518310546875,16.835601806641534.178955078125,25.25341796875.26837158203125,35.073638916016534-1.5841064453125,13.417449951170966-2.53106689453125,21.683441162108466-6.69171142578125,21.948272705077216-6.036376953125.28179931640625.6973876953125-8.7230224609375,6.2896728515625-20.504425048827216,9.38128662109375-7.178619384766534,1.88372802734375-14.418090820311591,2.011962890625-28.897064208984375,2.26837158203125-6.9144287109375.1224365234375-13.48553466796875-.3271484375-26.627716064452216-1.22625732421875-.000091552735284,0-8.968566894532159-.61358642578125-16.642333984375-4.72998046875-1.100677490235284-.5904541015625-3.762634277344659-2.1181640625-5.605834960938409-5.1678466796875-.71435546875-1.18194580078125-1.95111083984375-3.6602783203125-1.313873291016534-4.20440673828125Z"/>
    <path class="cls-5" d="M224.600944369793979,296.841295182844078c6.4874267578125-5.185546875,19.95001220703125-14.4833984375,39.43511962890625-17.9910888671875,18.93603515625-3.40887451171875,29.7535400390625-.83740234375,33.635009765625.5255126953125,4.9757080078125,1.74713134765625,11.5804443359375,4.1783447265625,14.71533203125,10.77374267578125,2.72332763671875,5.72955322265625,1.2706298828125,11.512451171875.52557373046875,14.45257568359375-3.74114990234375,14.7637939453125-17.98199462890625,22.183837890625-21.56329345703125,23.927490234375"/>
    <path class="cls-3" d="M219.627281039716763,303.288133561750328c-1.3046875,6.2418212890625,5.267608642577216,12.47149658203125,7.357666015624091,14.45257568359375,5.450836181640625,5.16668701171875,11.448577880859375,6.57049560546875,21.547454833984375,8.93426513671875,7.0247802734375,1.64422607421875,11.8807373046875,2.015380859375,21.0313720703125,2.71478271484375,19.39495849609375,1.482421875,21.95703125-.55126953125,23.1146240234375-1.92645263671875,3.5115966796875-4.17156982421875,1.49969482421875-11.0740966796875,1.05108642578125-12.61309814453125-3.19879150390625-10.9744873046875-15.1026611328125-16.010986328125-22.59857177734375-19.1824951171875-4.918701171875-2.08111572265625-13.89532470703125-5.7557373046875-25.7518310546875-4.72991943359375-5.6627197265625.48992919921875-13.80999755859375.4906005859375-20.77813720703125,5.90350341796875-1.924713134764716,1.4951171875-4.326568603514716,3.35101318359375-4.973663330077216,6.44683837890625Z"/>
    <path class="cls-5" d="M159.223575597879062,274.469737719387012c-1.095779596232205-.207498320289233-4.789730910785693.85296108221155-6.500264357659034,2.03582535384885-2.165676333425836,1.497613215859019-1.33152930399865,3.315582221493969,0,3.393042256413537,2.354764998087376.136973660590229,8.581785450786811-5.034699612793702,6.500264357659034-5.428867610262387Z"/>
    <path class="cls-5" d="M169.426979344800202,274.851812529698691c-1.02391885355155-.244768257487522-4.475622469929476,1.006166206580019-6.07397988770299,2.401491364918911-2.023652234543988,1.766607925908829-1.244208199448622,3.911112541918556,0,4.002485608196366,2.200340547965425.161576268072167,8.018995745496795-5.939010250671345,6.07397988770299-6.403976973115277Z"/>
    <path class="cls-5" d="M180.570987490469633,275.519153330863446c-1.159401791281198-.260781206272441-5.067828071270014,1.071990460515735-6.877677012759705,2.558598984307537-2.291417935632126,1.882180927623267-1.40883939206924,4.166980870075349,0,4.264331640511955,2.491485300703062.172146725748462,9.080053560246597-6.327545381649543,6.877677012759705-6.822930624819492Z"/>
    <path class="cls-5" d="M192.167313931165154,276.281693857862592c-1.113080990565322-.283578900338398-4.865356541633446,1.165704692881263-6.602897804481472,2.782273679722493-2.199870454553093,2.04672263512839-1.352552978498352,4.531261549707779,0,4.637122799535064,2.391944662624155.187195925203923,8.717284281640787-6.880704276278266,6.602897804481472-7.419396479257557Z"/>
    <path class="cls-5" d="M206.612186461295096,275.967216315019868c-1.279898566940574-.307722708050278-5.594528087415711,1.26495237992458-7.592474859631693,3.019155481024427-2.529565293179985,2.22097987952111-1.555260249309868,4.917051562344568,0,5.031925801706166,2.750425684957008.203133720355254,10.023744681869175-7.466525015293882,7.592474859631693-8.051081282730593Z"/>
    <path class="cls-5" d="M218.882001630030572,276.601277769078479c-1.281133441456404-.254592119234076-5.59992581215829,1.046549047921872-7.59980024772085,2.497876081619324-2.532005873862545,1.837511368223204-1.556760798881442,4.068086445655354,0,4.163126802697661,2.753079356642047.16806118950808,10.033415812990825-6.177374555809365,7.59980024772085-6.661002884316986Z"/>
    <path class="cls-5" d="M231.617578543441596,277.01298116772432c-1.346284026098147-.29861242091647-5.884592862214049,1.22728980962529-7.986111371232255,2.929287518729325-2.660656736022247,2.154881146923799-1.635840650774298,4.770713542138765,0,4.882163103460698,2.893049069116387.197092472482836,10.543401426602941-7.244324919423889,7.986111371232255-7.811450622190023Z"/>
    <path class="cls-5" d="M233.904655307293979,299.696886003156578h0c.0009765625.0316162109375-.55914306640625,3.0015869140625.52557373046875,4.20440673828125,1.02947998046875,1.1416015625,4.14788818359375,1.36474609375,5.25543212890625-.52557373046875.90740966796875-1.5487060546875.02020263671875-3.75665283203125-1.22625732421875-4.37957763671875-1.6190185546875-.80914306640625-4.5546875.70098876953125-4.55474853515625.70074462890625Z"/>
    <path class="cls-5" d="M246.179578879399742,296.211916514420409h0c.0009765625.0316162109375-.55914306640625,3.0015869140625.52557373046875,4.20440673828125,1.02947998046875,1.1416015625,4.14788818359375,1.36474609375,5.25543212890625-.52557373046875.90740966796875-1.5487060546875.02020263671875-3.75665283203125-1.22625732421875-4.37957763671875-1.6190185546875-.80914306640625-4.5546875.70098876953125-4.55474853515625.70074462890625Z"/>
    <path class="cls-5" d="M243.086436372198477,311.571441884402702h0c.00135096271697.041654394994111-.773510589719081,3.954594279974117.727071246383275,5.539310809224844,1.424168007510161,1.504061397628902,5.738129698376724,1.798054579287054,7.270290287950047-.692444006363075,1.25529766809268-2.040422043597573.027948041173659-4.949394512548679-1.696386994659406-5.770098673381653-2.239727311749448-1.066046939071384-6.300890104503196.923553526079559-6.300974539673916.923231870519885Z"/>
    <path class="cls-5" d="M250.881453099630562,305.40665378198446h0c.000642035240162.02115281406077-.367605302079028,2.008210598223741.345535340708011,2.812956750145531.676825524526066.763788096895951,2.72700455453014.913082861774456,3.455152771050052-.351634907097832.596571119531291-1.036161204590826.013282104027894-2.513387167233304-.806195625380496-2.930154773997856-1.064414173448313-.541356864870977-2.994452359176648.468996273142693-2.994492486377567.468832930950157Z"/>
    <path class="cls-5" d="M259.218295050463894,297.372045585697379h0c.000642035240162.02115281406077-.367605302082666,2.008210598223741.345535340704373,2.812956750145531.676825524526066.763788096895951,2.72700455453014.913082861774456,3.455152771050052-.351634907097832.596571119531291-1.036161204590826.013282104027894-2.513387167233304-.806195625376859-2.930154773997856-1.064414173448313-.541356864870977-2.994452359176648.468996273142693-2.994492486377567.468832930950157Z"/>
    <path class="cls-5" d="M280.765740305941108,318.273189163958705h0c.000642035240162.027375283232686-.367605302082666,2.598960770010308.345535340704373,3.64043703774405.676825524526066.988469686491953,2.72700455453014,1.181682110243855,3.455152771050052-.455074447729203.596571119531291-1.340966094154282.013282104027894-3.252743837358139-.806195625376859-3.792110904312722-1.064414173448313-.700606428241372-2.994452359176648.606959706445195-2.994492486377567.606748314297874Z"/>
    <path class="cls-5" d="M263.45696690470777,307.562899099496462h0c.001315323075687.045885759698649-.753104669118329,4.356312529931529.707890438345203,6.102008797111921,1.38659714593814,1.656847971855314,5.586752560662717,1.980705766185565,7.07849334504499-.762784318088961,1.222181761346292-2.247693564899237.027210746149649-5.452167227320388-1.651634745892807-6.356240708968471-2.180641245809966-1.174338834627633-6.134666829810158,1.017370560133713-6.134749037497386,1.017016229945511Z"/>
    <path class="cls-5" d="M257.050049596949066,318.985576240188493h0c.000657661537844.022942879850234-.376552334560984,2.178156264966674.353945219172601,3.051004398557779.69329857296907.828423985927657,2.793376280333177.990352883092783,3.539246672520676-.381392159044481.611090880676784-1.123846782451437.013605373078462-2.726083613661103-.825817372944584-3.178120354485145-1.090320622904983-.587169417314726-3.06733341490326.508685280066857-3.067374518748693.508508114971846Z"/>
    <path class="cls-5" d="M231.075233709262648,309.810601172642237h0c.000872936121596.033806964071118-.499810486620845,3.209573125497627.469803307525581,4.495738841555067.92023834491556,1.220705513425855,3.707741606805939,1.459312194196173,4.697760282731906-.561991829343242.811121330043534-1.656019124133309.018058865960484-4.01695913419826-1.096134972882282-4.683047696538779-1.447218968234665-.865210275424033-4.071374058872607.749561741964499-4.071428617375204.749300684326954Z"/>
    <path class="cls-5" d="M277.266065331396931,307.883548244920348h0c.001042086718371.036735127299835-.596659776292654,3.487567741822204.56083804535956,4.885133675537872,1.098554791686183,1.326435947841674,4.426198202880187,1.58570935595526,5.608054801556136-.610668303401326.968293951973465-1.799453899737273.021558168969932-4.364884845699635-1.30853526528881-5.088666137597102-1.727649517055397-.940149773343364-4.860292451216083.814484434396945-4.860357581626886.814200765460555Z"/>
    <path class="cls-5" d="M270.141011932638321,320.936393572682391h0c.000521043359186.026509607198022-.298329888144508,2.516775024647359.280419022681599,3.525317165662273.549277395843092.957211762595762,2.213099101438274,1.144314318416946,2.804027400779887-.440683837023244.484146975984913-1.298561337907813.010779084484966-3.149883809675885-.654267632646224-3.672194719056279-.86382475852588-.67845147224034-2.430146225608041.587766097807616-2.430178790815262.58756139041725Z"/>
    <path class="cls-5" d="M270.141011932638321,300.031414980420777h0c.000521043359186.026509607198022-.298329888148146,2.516775024647359.280419022677961,3.525317165662273.549277395843092.957211762595762,2.213099101441912,1.144314318416946,2.804027400779887-.440683837023244.484146975984913-1.298561337907813.010779084484966-3.149883809675885-.654267632646224-3.672194719056279-.86382475852588-.67845147224034-2.430146225608041.587766097807616-2.430178790811624.58756139041725Z"/>
    <path class="cls-5" d="M147.071495894510917,323.263871386109713c-1.95654296875-1.12713623046875-8.223846435546875-4.6253662109375-8.934295654296875-9.8101806640625-1.181060791015625-8.619384765625,11.083251953125-15.335205078125,11.9168701171875-15.77886962890625,12.841522216796875-6.83428955078125,32.630279541015625-3.384521484375,36.608673095703125,6.66937255859375,1.682861328125,4.2528076171875-.348052978515625,9.8922119140625-2.452545166015625,13.3138427734375-1.22515869140625,1.99200439453125-3.122344970703125,5.0765380859375-6.6087646484375,6.18829345703125-4.934234619140625,1.57342529296875-6.978485107421875-2.74127197265625-13.011688232421875-1.8087158203125-4.768768310546875.73712158203125-5.33740234375,3.71807861328125-10.04254150390625,3.7103271484375-3.172760009765625-.0052490234375-5.533203125-1.36505126953125-7.4757080078125-2.48406982421875Z"/>
    <path class="cls-3" d="M146.838950961591763,317.740709245344078c-.504119873047784-3.3909912109375,1.87640380859375-6.18121337890625,3.3284912109375-7.88323974609375,1.349090576171875-1.581298828125,3.944732666014716-4.0833740234375,9.4598388671875-6.13134765625,2.608856201171875-.96875,16.137268066407159-5.992431640625,21.37225341796875,0,1.70880126953125,1.9560546875,2.01336669921875,4.4927978515625,2.277374267578125,6.65692138671875.16888427734375,1.38433837890625.75823974609375,6.215576171875-1.7518310546875,9.98541259765625-3.07977294921875,4.62548828125-9.111724853515625,5.07904052734375-16.116760253907159,5.6058349609375-5.316253662108466.3997802734375-10.646087646483466.72210693359375-14.890533447264716-2.80291748046875-1.065521240235284-.88494873046875-3.26190185546875-2.6260986328125-3.6788330078125-5.4306640625Z"/>
    <path class="cls-3" d="M291.868666026660321,301.390955308367666c.103124676195876.187693602396394.511051212633902.146119595312484.899092694573483.102746899779959,5.223585074341827-.58421000312228,7.835360800152557-.876296126230955,8.458335327148234-1.096609765641915,4.402364777572075-1.556854799635403,9.131707652177283-5.097596804569548,8.596624513131246-6.334747208900808-.490736182524415-1.134699956490294-5.412971301855578-.33832566516503-8.944668345458922.972840343427379-5.090178177440976,1.889757543394808-9.406125811481616,5.633785276593699-9.009384189394041,6.355769731335386Z"/>
    <path class="cls-3" d="M262.736664738406944,287.687212602285399c.004871613829891.176268893626911.426378932897933.169598316200791.829301701349323.15981841354369,5.424088958909124-.131967678609726,8.136107260932476-.197935831472932,8.86027838161317-.348924942016311,5.117482694713544-1.066946743441804,11.573535566727514-3.890551769425656,11.683323288638348-5.041527832465363.100721153325139-1.055675903695374-5.136590522695769-.71057164893864-9.273885187940323.201234380474489-5.963013756107102,1.314166930538704-12.117817242662568,4.351357362087583-12.099018183660519,5.029399980463495Z"/>
    <path class="cls-3" d="M278.534906362393485,292.60736701713995c.004871613833529.176268893626911.426378932897933.169598316200791.829301701352961.15981841354369,5.424088958909124-.131967678609726,8.136107260928839-.197935831472932,8.860278381609533-.348924942016311,5.117482694717182-1.066946743441804,11.573535566731152-3.890551769425656,11.683323288641986-5.041527832465363.100721153325139-1.055675903695374-5.136590522695769-.71057164893864-9.273885187940323.201234380474489-5.963013756107102,1.314166930538704-12.117817242666206,4.351357362087583-12.099018183664157,5.029399980463495Z"/>
    <path class="cls-3" d="M246.329302239612844,288.168860794904504c-.002373451687163.124818609747308.31208520130167.105728681213805.612795103632379.085067213258299,4.048124533703231-.278362981303871,6.072166751004261-.417532457558991,6.617176322459272-.549263653701928,3.851404558557988-.93087021465908,8.760552524945524-3.152913188197999,8.881610673859541-3.97276037435222.11105234023853-.751965118874068-3.805091991554946-.328839512916602-6.92048633727245.45863367810307-4.490165747185529,1.13496921523074-9.182010477430595,3.498193168348735-9.191095762678742,3.978323136692779Z"/>
    <path class="cls-3" d="M289.191691784016257,284.128533158397659c.005540281108551.078896386548877.184981361908285.084199743892896.356443860589934.087747774006857,2.308197618862323.047623588032366,3.462285584424535.071441880078055,3.767831865810876.018177308284066,2.15919745289284-.376383630713462,4.854127796996181-1.511765725843361,4.878275652132288-2.024149021061021.022158562489494-.469957783927384-2.202277912972932-.418627710609144-3.946941363043152-.092332180631274-2.514554391229467.470282566091555-5.076946915127337,1.707069109577787-5.055610015489947,2.010556119401372Z"/>
    <path class="cls-3" d="M294.709635868565783,307.263358136119678c.005540281108551.078896386548877.184981361908285.084199743892896.356443860589934.087747774006857,2.308197618862323.047623588032366,3.462285584424535.071441880078055,3.767831865810876.018177308284066,2.15919745289284-.376383630713462,4.854127796996181-1.511765725843361,4.878275652132288-2.024149021061021.022158562489494-.469957783927384-2.202277912972932-.418627710609144-3.946941363043152-.092332180631274-2.514554391229467.470282566091555-5.076946915127337,1.707069109577787-5.055610015489947,2.010556119401372Z"/>
    <path class="cls-3" d="M267.503865110305014,280.964743404189903c.005540281108551.078896386548877.184981361908285.084199743892896.356443860589934.087747774006857,2.308197618862323.047623588032366,3.462285584424535.071441880078055,3.767831865810876.018177308284066,2.15919745289284-.376383630713462,4.854127796996181-1.511765725843361,4.878275652132288-2.024149021061021.022158562489494-.469957783927384-2.202277912972932-.418627710609144-3.946941363043152-.092332180631274-2.514554391229467.470282566091555-5.076946915127337,1.707069109577787-5.055610015489947,2.010556119401372Z"/>
    <path class="cls-5" d="M151.357092977676984,313.194182417832963h0c.0009765625.0316162109375-.55914306640625,3.0015869140625.52557373046875,4.20440673828125,1.02947998046875,1.1416015625,4.14788818359375,1.36474609375,5.25543212890625-.52557373046875.90740966796875-1.5487060546875.02020263671875-3.75665283203125-1.22625732421875-4.37957763671875-1.6190185546875-.80914306640625-4.5546875.70098876953125-4.55474853515625.70074462890625Z"/>
    <path class="cls-5" d="M170.497711149084353,303.688636824353125h0c.0009765625.0316162109375-.55914306640625,3.0015869140625.52557373046875,4.20440673828125,1.02947998046875,1.1416015625,4.14788818359375,1.36474609375,5.25543212890625-.52557373046875.90740966796875-1.5487060546875.02020263671875-3.75665283203125-1.22625732421875-4.37957763671875-1.6190185546875-.80914306640625-4.5546875.70098876953125-4.55474853515625.70074462890625Z"/>
    <path class="cls-5" d="M160.135282547470524,319.102841825723772h0c.000642035240162.02115281406077-.367605302082666,2.008210598223741.345535340704373,2.812956750145531.676825524526976.763788096895951,2.72700455453014.913082861774456,3.455152771050962-.351634907097832.596571119530381-1.036161204590826.013282104026985-2.513387167233304-.806195625377768-2.930154773997856-1.064414173448313-.541356864870977-2.994452359176648.468996273142693-2.994492486377567.468832930950157Z"/>
    <path class="cls-5" d="M171.614825227390611,314.380224178938988h0c.001239292387254.038005371021427-.709572348103393,3.608162424940019.666971672242653,5.054054020944022,1.306446544631399,1.372302045550896,5.263816963688441,1.640540725973551,6.669329443609968-.631784266155591,1.15153499608914-1.861676224541952.025637861285759-4.515815793503862-1.556163960876802-5.264624319856011-2.054591868311945-.972658694281563-5.780059699205594.842648042833389-5.780137154975819.842354565067581Z"/>
    <path class="cls-5" d="M161.301577381291281,308.079136211102195h0c.001239292387254.038005371021427-.709572348104302,3.608162424940019.666971672243562,5.054054020944022,1.306446544630489,1.372302045550896,5.263816963687532,1.640540725973551,6.669329443608149-.631784266155591,1.151534996090049-1.861676224541952.025637861287578-4.515815793503862-1.556163960875892-5.264624319856011-2.054591868311945-.972658694281563-5.780059699205594.842648042833389-5.780137154975819.842354565067581Z"/>
    <path class="cls-3" d="M143.920363731479483,316.312458959809192c.079051886215893-.002476653204212.091309658730097-.181577111299703.101504029156786-.352773056883962.13709554237812-2.304614732687696.205649386203731-3.456911011333432.164273416004107-3.764292978548838-.292370715977086-2.172168879824312-1.322394246619297-4.909100298007615-1.833455738166776-4.953099297794324-.468745032143488-.040366017963606-.5037132346215,2.184387818893811-.245318058108751,3.940392163889555.372418918135736,2.530899766452421,1.508910204584026,5.139325336889669,1.812996351114634,5.129773169337568Z"/>
    <path class="cls-3" d="M152.823992333659589,303.191911982120473c-.022303875720354-.084095343903755-.167478810386456-.131356948513712-.305854804382761-.174922278140002-1.862761440372196-.586322437358831-2.794134930843938-.879487956526646-3.027233156127295-.894579964429795-1.64723483078069-.106671358476888-3.552511269091156.458802113966158-3.455905502372843.990977825695154.088598626092789.488109021282071,1.861755633383837.951108853550977,3.187726965704314,1.014029627482159,1.911100807076764.090688501131808,3.687082113008728-.612013723617565,3.601266497178585-.935505210607516Z"/>
    <path class="cls-3" d="M160.841282613253497,299.77776012522645c.007808259922967-.079501707250529-.111988969712911-.161480877710346-.226681675653708-.238329451743994-1.543993148031404-1.034385573952022-2.315981485985503-1.551580072729848-2.529072812837512-1.630270695997751-1.505845056380167-.556100911609974-3.482596589583409-.599464913404518-3.57370875997367-.108883353324927-.083574877142382.44995689262214,1.41859880872471,1.351756580488654,2.638584374293714,1.779418556905512,1.758344633589331.616383799326286,3.660860250170117.503891266440405,3.690878874171176.19806494416116Z"/>
    <path class="cls-3" d="M171.254331210683631,298.785639021892166c.014751964175048-.07922100588803-.097409077741759-.1725107944294-.204934589305594-.260179233937379-1.447521527300523-1.180041790885298-2.171273935424324-1.770063660062078-2.376670078658208-1.868512031614955-1.451463961399895-.695722414116972-3.417050908747115-.918675722237822-3.550850760184403-.433721414918182-.122727596964978.444794935621758,1.294758787302271,1.487743062885784,2.472692654203456,2.028398668886439,1.697736071126201.779239622905152,3.603033114810387.838762177761964,3.659762773944749.534014011584077Z"/>
    <path class="cls-3" d="M180.901361590958004,300.8030701878115c.037977619819685-.037775841086841-.047936247669895-.130386588833062-.130814235920298-.218205657272847-1.115760634696926-1.182142854033373-1.673632241434461-1.773211708341478-1.852071012173838-1.903279544096222-1.260959174357595-.919156494466733-3.178274205592061-1.771184749310123-3.454621169469647-1.556098642231518-.253470359610219.197271794722838.871974449736626,1.29339870980948,1.902290024111608,2.026257872961651,1.484975784884227,1.056258489817992,3.389142203671327,1.796649274101583,3.535216393452174,1.651325970638936Z"/>
  </g>
  <path class="cls-5" d="M220.206942619929578,259.663481859816784c-.733001708984375.10296630859375-1.4066162109375-4.15850830078125-4.33721923828125-10.0474853515625-1.914215087890625-3.84661865234375-11.367279052734375-22.84222412109375-33.61175537109375-29.2298583984375-4.716278076171875-1.3543701171875-12.30462646484375-3.54205322265625-20.739501953125-1.40283203125-17.2603759765625,4.37762451171875-22.852081298828125,23.02349853515625-21.180816650390625,23.8470458984375,1.465972900390625.72235107421875,8.055267333984375-12.49639892578125,23.387115478515625-14.72906494140625,6.80279541015625-.9906005859375,12.42999267578125.59881591796875,16.326904296875,1.75347900390625,21.558563232421875,6.38775634765625,33.53375244140625,25.2532958984375,30.4473876953125,27.70458984375-2.632293701171875,2.0906982421875-14.45562744140625-9.15936279296875-27.3585205078125-5.9617919921875-8.430999755859375,2.08941650390625-13.5169677734375,9.4041748046875-12.35546875,10.52081298828125,1.280120849609375,1.23065185546875,8.962615966796875-6.20806884765625,19.85699462890625-5.611083984375,10.007049560546875.54840087890625,10.547698974609375,7.20947265625,24.269622802734375,10.520751953125,2.43768310546875.5882568359375,14.1270751953125,3.40899658203125,23.89910888671875-.820556640625,5.825439453125-2.5213623046875,9.36053466796875-6.5169677734375,9.360595703125-6.51702880859375,2.12933349609375-2.40673828125,1.6390380859375-3.00457763671875,3.11151123046875-4.32672119140625,5.79638671875-5.20477294921875,19.91400146484375-1.793701171875,20.11090087890625-2.71405029296875.1162109375-.543212890625-4.714111328125-2.14990234375-10.59039306640625-2.80548095703125-5.29571533203125-.5908203125-7.50262451171875.03021240234375-8.38409423828125-1.0521240234375-1.70648193359375-2.09552001953125,4.22015380859375-7.32135009765625,6.177734375-9.117919921875,2.70513916015625-2.48272705078125,9.18035888671875-8.26287841796875,20.2708740234375-10.47149658203125,3.35333251953125-.66778564453125,5.5032958984375-1.09600830078125,8.4114990234375-.7506103515625,10.43377685546875,1.2388916015625,15.79022216796875,10.6722412109375,16.76806640625,10.1700439453125.87322998046875-.44854736328125-1.76611328125-6.66552734375-7.9427490234375-12.27423095703125-2.87274169921875-2.60858154296875-7.20806884765625-6.7510986328125-12.79669189453125-7.36456298828125-5.4832763671875-.60186767578125-10.3829345703125,2.3433837890625-19.99993896484375,11.14593505859375-18.14068603515625,16.60430908203125-23.93389892578125,27.38433837890625-27.065673828125,26.01458740234375-3.12274169921875-1.3658447265625-1.02435302734375-13.685302734375,1.61505126953125-21.37939453125,2.1376953125-6.2315673828125,4.74725341796875-13.58563232421875,11.52362060546875-19.53302001953125,4.73895263671875-4.15924072265625,9.05755615234375-5.7664794921875,9.665771484375-10.30633544921875.3343505859375-2.495849609375-.5150146484375-5.412933349609375-1.519775390625-5.540374755859375-.9595947265625-.1217041015625-1.70068359375,2.3465576171875-3.25665283203125,5.005889892578125-2.70050048828125,4.6156005859375-5.1986083984375,5.26568603515625-8.97406005859375,9.0665283203125-4.44287109375,4.47271728515625-6.474609375,9.1004638671875-9.03936767578125,14.94232177734375-.30072021484375.6849365234375-1.2640380859375,2.93206787109375-2.37530517578125,6.31475830078125-4.13555908203125,12.58880615234375-3.80572509765625,21.1654052734375-4.471435546875,21.1668701171875-1.561767578125.00347900390625-.5465087890625-47.208587646484375.5045166015625-67.407867431640625.65582275390625-12.60418701171875,1.32720947265625-16.3985595703125,3.9713134765625-19.28802490234375.7578125-.828125,3.5159912109375-3.618682861328125,3.5301513671875-7.364501953125.00347900390625-.90606689453125.01025390625-2.715301513671875-1.368896484375-4.302520751953125-3.00732421875-3.460968017578125-11.1123046875-4.149139404296875-16.0362548828125-1.264251708984375-.71514892578125.418975830078125-2.9512939453125,1.768157958984375-3.77557373046875,4.16400146484375-1.0450439453125,3.037322998046875,1.014251708984375,5.329376220703125,3.971405029296875,10.520721435546875,2.342864990234375,4.11297607421875,3.931365966796875,6.901702880859375,4.853912353515625,10.1700439453125,1.23370361328125,4.370697021484375.097412109375,5.42230224609375,0,14.378326416015625-.03533935546875,3.247589111328125.065185546875,4.047943115234375.24993896484375,8.14288330078125,0,.000091552734375.03997802734375.780853271484375.1912841796875,4.832733154296875.2479248046875,6.6395263671875-.5697021484375,49.0101318359375-1.872802734375,48.99505615234375-.6175537109375-.00714111328125.2308349609375-9.51568603515625-3.416046142578125-23.91241455078125-1.72442626953125-6.8074951171875-2.586639404296875-10.21124267578125-4.4671630859375-13.138671875-6.455108642578125-10.048828125-15.825775146484375-9.57293701171875-20.058380126953125-19.7080078125-1.599578857421875-3.830230712890625-1.705841064453125-7.357086181640625-2.80291748046875-7.357666015625-1.29052734375-.00067138671875-3.707427978515625,4.883819580078125-2.595550537109375,9.215972900390625,1.82623291015625,7.115509033203125,11.823150634765625,7.48486328125,18.88604736328125,16.777191162109375,1.980712890625,2.60589599609375,3.49658203125,5.5238037109375,3.496612548828125,5.52386474609375,1.18084716796875,2.2862548828125,2.13262939453125,4.78759765625,3.12237548828125,8.153076171875,3.605010986328125,12.2587890625,5.750335693359375,26.46466064453125,4.412689208984375,26.6524658203125Z"/>
  <g>
    <path class="cls-3" d="M214.16806461885335,132.544382688100995c.534475347599255,6.693677348182973.801700433068618,10.040497500038327,1.734269152766501,12.440016333370295,3.931209814455542,10.115179161940432,18.787202482904831,14.42363684420161,23.64775840438233,4.983370975009166,3.687172434254535-7.161326802473013.469192264254161-19.99494068430613-.234948605388126-19.975158934576939-.554239026900177.015558679563583-.94734742001674,8.034613259645994-1.517498097002317,7.974341898578132-.064905433422609-.006853227903775-.10795752463855-.115838073793384-.129408040260387-.171701142317943-.658218639015104-1.715751911024199-.98596841879953-19.343958122504773-.737726536124683-19.285724207569729.259269260428482.06082702819549-1.29861220166822,18.842042528704042-2.167861617621384,18.81948244333762-.854042712388036-.022152596138767-1.307625446495877-18.202877154474663-1.734269152764682-18.181539536788478-.416270921723481.02081899503446.01042313787184,17.3286275409464-1.300727041238133,17.543596630239335-.445475849095601.073051704995123-.973279381392786-1.846555952776725-1.50430552636135-3.777869664693753-1.225045996681729-4.455524248603069-1.22459281677402-7.700583227222523-1.530690667645104-7.705213786616696-.508518209562681-.00770525083044-.935715802390405,8.943573546389416-1.083905632149254,8.931274780638887-.202823185278248-.016855236192896.457006760076183-16.793705319787477-.216771055762365-16.905616679216109-.637322009948548-.105836065501535-1.955018121056128,14.783190520000971-3.034996194006453,14.67279798405616-.990525394536235-.101279595059168-1.034232078951391-12.744188518822739-1.734294329428849-12.758969264407824-.629114418288736-.013261922103993-.959885397457583,10.18908288986313-1.734294329429758,10.207197638211255-.890397811635921.020818995033551-1.575328888534386-13.43984671765611-2.167836440959036-13.396912170956966-.620327763414934.044934948356058-.252924741721472,14.827347534379442-1.300727041237224,14.991787959567773-1.015223699497255.159328287618337-2.436798716074918-13.549609497524216-3.251767249769728-13.396912170956966-.606052596327572.113578360807878-.571359156741892,7.835980783894229,0,14.99175091509278Z"/>
    <path class="cls-5" d="M220.297164787461952,137.122453425349704c.41115723951134,5.341324834674197.616726175410804,8.011972471902482,1.334125737746035,9.926706162975279,3.024171989440219,8.071565875447959,14.452480073645347,11.509567263973622,18.191572557794643,3.976559036928847,2.836440719824168-5.714493052108992.360936752342241-15.955276552715986-.180739524197634-15.939491395230107-.426360896444749.01241529240724-.728768411530837,6.411345678679936-1.167369704386147,6.363251200718878-.049929971430174-.00546864070111-.083048765513013-.092434807977952-.099550059407193-.137011619756777-.506349562852847-1.36911115008661-.758478487625325-15.435814806440249-.56751280946628-15.389346140581438.199448737694183.048537881260927-.998986782897191,15.035303385496263-1.66767653990064,15.017301211508311-.656991656638638-.017677011566775-1.005920425164732-14.525271349403738-1.334125737745126-14.508244662675679-.320225813658908.016612843645817.008018234355404,13.827650157114476-1.000613671025349,13.999188113843047-.342692364030881.058292753865317-.748717158847285-1.47348828694885-1.157221021288933-3.014610357288802-.942394317220533-3.555355461974614-.942045698335278-6.14480117482799-1.177518387486998-6.148496202330534-.391189124484299-.006148525762001-.719820526815965,7.136664797120829-.83381890223427,7.126850804077549-.156026318787553-.013449900106025.351562777881554-13.400800580137911-.166756033358979-13.490102004795517-.490274358709939-.084453548574857-1.503941870212657,11.796478759412821-2.334739408774112,11.708389303774311-.761984044194833-.080817641513022-.795606398885866-10.169425129495721-1.334145105462085-10.181219657280053-.48396048334871-.010582558766146-.738413534018036,8.130538514371437-1.334145105465723,8.144993461955892-.684958638306853.016612843647636-1.211857347663681-10.724536501105831-1.667657172183681-10.690276206112685-.477201150519249.035856546875038-.194568073300616,11.83171454166586-1.000613671025349,11.962932358301259-.780983773429398.127138506271876-1.874562480476015-10.812123433003762-2.501495442132182-10.690276206112685-.466219655640998.090631634557212-.439530943216596,6.252843778974238,0,11.962902798080904Z"/>
    <path class="cls-5" d="M214.066169583164992,138.764109246742009c.411157239514068,5.341324834676016.616726175411713,8.011972471903391,1.334125737747854,9.926706162978007,3.0241719894384,8.07156587544705,14.452480073644438,11.509567263972713,18.191572557791915,3.976559036927938,2.836440719825987-5.714493052108082.360936752345879-15.955276552715077-.180739524193996-15.939491395230107-.426360896448386.012415292405421-.728768411534475,6.411345678679027-1.167369704387966,6.363251200718878-.049929971428355-.00546864070111-.083048765509375-.092434807977952-.099550059407193-.137011619756777-.506349562851028-1.369111150087519-.758478487623506-15.435814806441158-.56751280946628-15.389346140580528.199448737694183.048537881260017-.998986782897191,15.035303385495354-1.66767653990064,15.017301211506492-.656991656636819-.017677011565866-1.005920425164732-14.525271349401919-1.334125737745126-14.508244662676589-.320225813657089.016612843646726.008018234355404,13.827650157114476-1.000613671027168,13.999188113844866-.342692364030881.058292753865317-.748717158843647-1.47348828694885-1.157221021288933-3.014610357289712-.942394317218714-3.555355461972795-.94204569833164-6.144801174828899-1.177518387485179-6.148496202328715-.391189124484299-.00614852576291-.719820526814146,7.13666479711901-.83381890223427,7.12685080407573-.156026318785734-.013449900106025.351562777883373-13.400800580137911-.166756033360798-13.490102004795517-.49027435870812-.084453548574857-1.503941870209928,11.796478759412821-2.334739408773203,11.70838930377613-.761984044192104-.080817641513931-.795606398885866-10.169425129496631-1.334145105462994-10.181219657282782-.483960483345072-.010582558764327-.738413534018036,8.130538514373256-1.334145105462085,8.14499346195862-.684958638307762.016612843646726-1.2118573476655-10.72453650110765-1.667657172183681-10.690276206112685-.477201150519249.035856546875038-.194568073302435,11.83171454166586-1.000613671026258,11.96293235830035-.780983773430307.127138506271876-1.874562480475106-10.812123433003762-2.501495442134001-10.690276206112685-.46621965563827.090631634557212-.439530943214777,6.252843778972419,0,11.962902798079085Z"/>
    <path class="cls-3" d="M214.676763935001873,147.418071581073491c1.376004444550745-1.453569199064077,5.464762816719485,6.249362267221841,7.76729012243959,4.460711857833303,1.797721196112434-1.396464762215146.722763876147837-7.193162296352057,2.196514524871418-7.810874181406689,1.467649277266901-.615153096592621,3.076409587081798,4.906036620966916,6.350123479805916,7.433293809949646,4.250622952327831,3.281412074808941,7.660867997175956-2.712230927956625,9.021101047252159-.537074381692037,1.501967742235138,2.401771222623211-.374365338251664,12.583353755243479-5.181731458989816,16.718843349352937-5.527966869789452,4.755359061909076-13.769522545419022.516581981812124-17.746670967105274-7.345520848029082-2.506468593663158-4.954863492094773-3.519176402787707-11.744124573208865-2.406626748273993-12.919379606008079Z"/>
    <path class="cls-5" d="M214.75722960569783,154.679260818728835c1.342332406045898-1.394117709376587,5.384327546818895,6.140490270612645,7.633363263851606,4.432852194219777,1.755957289657999-1.333214776646855.676575613376372-6.977432598334417,2.118425221270627-7.558418087843165,1.435880314085807-.578578790817119,3.03728071617661,4.804919288710153,6.257416714486681,7.301863166551811,4.181056859095406,3.242053082566599,7.49725057834803-2.535631680548249,8.840209213065464-.405354989922671,1.482893201889965,2.352215916787827-.311177424764537,12.217441809248157-5.005082636011139,16.17228087177682-5.397498812830236,4.547630477693929-13.494758983043539.324229898362319-17.428058310019878-7.363542975985183-2.478834252896377-4.84499688050073-3.501598090877451-11.452493593063991-2.416273466643361-12.579680178797389Z"/>
    <path class="cls-3" d="M215.13597695095541,162.281908732888041c1.36022501889147-1.551207921867899,5.147013035369127,5.966827184730391,7.409478799431781,4.020427976078281,1.766441857943391-1.519628346261925.850897741552217-7.300729355078147,2.287822272141966-8.014795457784203,1.4309755897375-.711108392291862,2.868082412443982,4.759131470273132,5.977256326392308,7.106485286366478,4.036982678637287,3.047823696017986,7.458855386857977-3.208734679194094,8.726850328661385-1.098480051945444,1.400119254334641,2.330106301185879-.62867058372467,12.716602930910085-5.360902509164589,17.184961068363009-5.441569994864039,5.138122800019119-13.313954572643524,1.370839850918856-16.989536880744708-6.314647505382709-2.316415740516277-4.843557577542015-3.150759570145055-11.629751898086397-2.050968336718142-12.883951315695413Z"/>
    <path class="cls-5" d="M215.813931486840374,168.989901847546207c1.292318604509092-1.586629991268637,4.638200790571318,5.460740773802172,6.774233100877609,3.435504246849632,1.667726842185402-1.581182644048567.943116424109576-7.123908637801833,2.288631534232081-7.90445700480177,1.33994457829067-.777315461891703,2.554038240168666,4.432042506546168,5.382599767945067,6.51319515292198,3.672632821693696,2.702185549151181,6.973769280280976-3.569483352989664,8.102791297524163-1.604031949493219,1.246666191727854,2.170215787125017-.852615425541444,12.355794629653246-5.328847933726138,16.976565339606168-5.147197109705303,5.31338189017788-12.355380111545855,2.151713602580458-15.594743718274913-5.064728169661066-2.041502506098368-4.547955966419977-2.669550305427038-11.069207906191878-1.62466404857787-12.352047615421725Z"/>
    <path class="cls-3" d="M216.1953700839249,173.414317870836385c1.304625666321044-1.751123906005887,4.349014748410809,5.237167060308821,6.487541026282997,2.959682517872352,1.669672853673546-1.778126303970566,1.13038266463991-7.440126782231346,2.462671235405651-8.363287305440281,1.326772756623541-.919337147962324,2.352211162380627,4.355789812550029,5.041740596307136,6.259528028603199,3.492112269274003,2.471828730213929,6.890989630852346-4.29298411034506,7.930606452851862-2.361034958054006,1.147946038374357,2.133221422045608-1.198686843425094,12.83618035082327-5.691403347080268,17.997944864389865-5.166151405901473,5.935467303668702-12.084036892016229,3.296342000924597-15.019748637272642-3.875837457138914-1.850134980784787-4.520062102566953-2.266244050207206-11.201156971927048-1.211407326494736-12.616995690232216Z"/>
    <path class="cls-5" d="M216.820183506705689,176.712900822572919c1.304625666321044-1.751123906005887,4.349014748410809,5.237167060307911,6.487541026282997,2.959682517872352,1.669672853675365-1.778126303971476,1.13038266463991-7.440126782231346,2.462671235405651-8.363287305440281,1.326772756621722-.919337147962324,2.352211162378808,4.355789812550029,5.041740596305317,6.259528028603199,3.492112269274003,2.471828730213929,6.890989630854165-4.29298411034506,7.930606452853681-2.361034958054915,1.147946038372538,2.133221422046518-1.198686843425094,12.836180350824179-5.691403347080268,17.997944864391684-5.166151405901473,5.935467303667792-12.084036892017139,3.296342000922778-15.019748637272642-3.875837457139824-1.850134980785697-4.520062102566953-2.266244050207206-11.201156971927048-1.211407326494736-12.616995690232216Z"/>
  </g>
  <g>
    <path class="cls-3" d="M251.699201952103067,154.268922107547041c-.048219482288914,5.431555105079497-.072337580144449,8.147316909413348.476651932780442,10.142313006012955,2.314239082568747,8.409909934128336,13.373718507305966,12.844446562956364,17.732383418053359,5.547251393414626,3.306444573363478-5.535607705635812,1.722746462639407-16.091219695359541,1.18326969521695-16.120805279610067-.424628826649496-.023296744756408-1.272162861110701,6.416901386973223-1.703778303810395,6.331435271541523-.049135255030706-.009722927246912-.074601451173294-.10037953466599-.087183313144124-.146808080914525-.385973017535434-1.425945494374901.566251857981115-15.660446220992526.751993235875489-15.597440001060022.193991937523606.065810117009278-2.277958282575128,15.108021854279286-2.940727506798794,15.03361959992526-.651175572802458-.073090318774121.24257981611845-14.761214001472581-.084930829525547-14.771599981315376-.319548045972624-.010133350624528-1.174297067311272,13.972435006933665-2.190986754543701,14.060971499268817-.345431020699834.030092325791884-.617828351994831-1.55178473322303-.891889850587177-3.143308572649403-.632237066372909-3.671630180787361-.410493371056873-6.288033610611819-.64410728578514-6.311561827519654-.388100300371661-.03909736825608-1.325288319394531,7.150531922152368-1.437700666079763,7.13103253542522-.153854047393907-.02670620684512,1.495026456583219-13.510909161820564.987739005802723-13.64471302083075-.479841242355178-.126547941281387-2.502685638110052,11.792994084721613-3.320508035209059,11.634146741524091-.75008151775728-.145715033215311.079091400612015-10.342291702693728-.454910294189176-10.399480650375153-.479884698946989-.051376306110797-1.428735610328658,8.15320072718805-2.02179976199659,8.11772698742152-.681891090242061-.040794102013933-.286970244704207-10.93817995637346-.742712857092556-10.94187877348395-.4771401932976-.003885001544404-1.204903697100235,11.938667756589894-2.016887082319954,12.003494027860143-.786736988851771.062811233592583-.937844566684362-11.082389087135198-1.571087702306613-11.011974213670328-.470913915456549.052384092198736-.971268619803595,6.281061932042576-1.022827044340374,12.087579339035074Z"/>
    <path class="cls-5" d="M256.070914355653258,158.356493802060868c-.050197564714836,4.333202864239865-.075302739398467,6.499791753189129.342322517490175,8.089999781996994,1.76047909369845,6.703525111047384,10.259799271232623,10.214567591026935,13.631281152505835,4.38263738875321,2.557576324448746-4.424066618056713,1.364404029101934-12.841111752495635.949360609331052-12.863413486521495-.326685778793035-.017561601674061-.994368703493819,5.122224936467319-1.326280648601823,5.055083834668949-.037784989341162-.007638129019142-.057162085933669-.079899106930498-.066731609247654-.116907691825872-.293559685755099-1.136634236710051.473470046610601-12.494669222882294.616241799500131-12.444853039006375.149113606019455.052033136017599-1.789256338697669,12.058092617835428-2.299062378117014,12.000335081022058-.500888158767339-.056738873572613.222244217509797-11.776515927441324-.029742518747298-11.784011937323157-.245860311249999-.007313667336348-.937277324934257,11.149504340198291-1.719809669113602,11.222586287512058-.265873625978202.024839232433806-.47166357752576-1.2364650299196-.678710811436758-2.505461112402372-.477640453122149-2.92756179814296-.300706530661046-5.015362795847977-.48041024905433-5.033569535105926-.298539842659011-.030254792898631-1.037016056463472,5.707615346795137-1.12346771826742,5.692330474390474-.118322706788604-.020934294314429,1.182958484281698-10.782089877968247.792935228080751-10.887610558302185-.368921533210596-.099798351422578-1.954187268866008,9.414032184618918-2.583099523435521,9.28928137568073-.576818891917355-.114437657370217.085791052528293-8.250874852132256-.324972883867304-8.295210690941531-.369136187639015-.039829195367929-1.119033449631388,6.507755494438243-1.575296912389604,6.480885598105488-.524600886485132-.03090014323061-.194448310181542-8.725369215459978-.545122663168513-8.727221335376271-.367138841669657-.001949067763235-.955925625139571,9.527116508902509-1.580884104796496,9.580789866327905-.605527111123592.052004976279932-.694933218002916-8.838844679448812-1.18236873292517-8.781143836794399-.362483514061751.042925250357257-.762510162827311,5.01313205918359-.816180883739435,9.645473535141718Z"/>
    <path class="cls-5" d="M251.196983482600444,159.277186524534045c-.050197564711198,4.333202864240775-.075302739396648,6.499791753190948.342322517491993,8.089999781998813,1.760479093696631,6.703525111046474,10.259799271228985,10.214567591025116,13.631281152504016,4.38263738875321,2.557576324450565-4.424066618056713,1.364404029103753-12.841111752495635.949360609332871-12.863413486522404-.326685778794854-.01756160167497-.994368703495638,5.122224936467319-1.326280648601823,5.055083834669858-.037784989341162-.007638129020052-.05716208593185-.079899106930498-.066731609249473-.116907691825872-.293559685755099-1.136634236710961.47347004661242-12.494669222883203.61624179950195-12.444853039005466.149113606019455.05203313601578-1.789256338699488,12.058092617834518-2.299062378117014,12.000335081020239-.50088815876552-.056738873571703.222244217506159-11.776515927440414-.029742518747298-11.784011937323157-.245860311249999-.007313667336348-.937277324934257,11.149504340197382-1.719809669115421,11.222586287512058-.265873625978202.024839232434715-.471663577523941-1.2364650299196-.678710811436758-2.505461112403282-.47764045312033-2.927561798141141-.300706530659227-5.015362795847977-.480410249052511-5.033569535103197-.298539842659011-.030254792899541-1.037016056463472,5.707615346792409-1.123467718269239,5.692330474388655-.118322706786785-.020934294314429,1.182958484283517-10.782089877968247.792935228078932-10.887610558303095-.368921533208777-.099798351421668-1.95418726886237,9.414032184619828-2.583099523433702,9.289281375682549-.576818891915536-.114437657370217.085791052528293-8.250874852134075-.324972883869123-8.29521069094335-.369136187637196-.03982919536611-1.119033449631388,6.507755494439152-1.575296912387785,6.480885598108216-.524600886483313-.03090014323152-.194448310179723-8.725369215461797-.545122663164875-8.727221335376271-.367138841671476-.001949067764144-.95592562514139,9.527116508901599-1.580884104798315,9.580789866326086-.605527111125411.052004976280841-.694933218002916-8.838844679447902-1.182368732926989-8.78114383679349-.362483514059932.042925250357257-.762510162825492,5.013132059182681-.816180883739435,9.645473535139899Z"/>
    <path class="cls-3" d="M251.073194212301132,166.294206634648617c1.150758124698768-1.083003517549514,3.749978877400281,5.392142772654552,5.631676869721559,4.098885508808962,1.469151646017053-1.009689734263702,1.043120056650878-5.752977925103551,2.211551787142525-6.155723678217328,1.163594289973844-.4010772103411,2.01637211524212,4.154593853826555,4.345825118591165,6.403979840721149,3.024585416369518,2.920622095257386,6.039726773995426-1.69141143766501,6.930858485404315.150341498041598.983988918853356,2.033633949920841-1.144613816848505,10.121522601955803-5.100705756454772,13.145011663874357-4.549089455664216,3.476678995807561-10.558357060474009-.473934208646824-13.061422269445757-7.070199936785684-1.577473584611653-4.157105242138641-1.888213461905252-9.696654043045783-.957784234959036-10.572294896443054Z"/>
    <path class="cls-5" d="M250.639286847682342,172.153976562064599c1.120968731331232-1.037246347099426,3.695935552477749,5.299159664990839,5.531226402776156,4.0677620050119,1.432919030323319-.961393188294096.993103126023925-5.582025840738424,2.1346493586625-5.957222731851289,1.136820106597952-.37364243441516,1.993367401555588,4.07053438735602,4.283942607520657,6.292014530730739,2.974106072908398,2.884388959701937,5.902636412803986-1.559603419676932,6.783628432034675.244846596237039.972792500382639,1.992444888505815-1.071358872950441,9.830580600359099-4.928415268821482,12.715751654659471-4.435209074976228,3.317628256093485-10.335250482741685-.611255876662653-12.816698634607746-7.064126869378015-1.563850289414404-4.066734715157509-1.894676361880556-9.460380473718942-.98833289756476-10.299025185409846Z"/>
    <path class="cls-3" d="M250.410039592373323,178.308347708853034c1.145360477743452-1.162748286060378,3.526420493155456,5.1437916282066,5.388264732637253,3.720753650012739,1.453649925479112-1.111017085196181,1.148382953744658-5.831421173937997,2.295244840188388-6.314237065820635,1.142113721467467-.480815848152815,1.867184525992343,4.02267480712726,4.08316486223157,6.116367496199928,2.877251434683785,2.718468333043347,5.919216688773304-2.104797204088754,6.744285063858115-.321338356492561.911042433330294,1.969265492219165-1.348053135312512,10.212513652300913-5.26943538809428,13.509247403043446-4.509176615263641,3.790881616393563-10.268479927219232.244299145657351-12.55312836208941-6.190063077681771-1.439823027467355-4.055070980261007-1.614460638031233-9.580612697885954-.688395748731637-10.520730049261147Z"/>
    <path class="cls-5" d="M250.470494820917338,183.760723845189204c1.095880913870133-1.195699823671021,3.172098029508561,4.702839472590313,4.942696504376727,3.208060205904985,1.382408333016429-1.167030893945594,1.206795673531815-5.682890226354175,2.288335354189257-6.225220820910181,1.077061932614015-.540084195406962,1.649497820229954,3.738640302589374,3.669186968714712,5.599553181850752,2.622385040374866,2.416224796642382,5.573110693376293-2.4270318366016,6.301850825464498-.769312301771606.804677347647157,1.830425169486261-1.494582494820861,9.907118378997438-5.230720243982432,13.343294571571278-4.296164597470124,3.951226323264564-9.58918232612632.935892536887877-11.572459474913558-5.092077349906504-1.249893189307841-3.798954674622109-1.284948683409311-9.097537397909036-.398889933849205-10.064297486738724Z"/>
    <path class="cls-3" d="M250.46014232338257,187.352717773253971c1.116509127148674-1.327532440096547,2.96634627723688,4.50387497502652,4.756060592988433,2.805873946164866,1.39733221381357-1.325697183255215,1.371484863602745-5.925741134156851,2.452646252273553-6.583912678754132,1.076685172238285-.655445521510956,1.500457480618934,3.664107409076678,3.425998098875425,5.372983319435662,2.500141740330946,2.218818363168793,5.559209373617705-3.015730674181214,6.221908899373375-1.390805041301064.731756203147597,1.794213260864126-1.791836213080387,10.27206506929906-5.577481400350734,14.143368859256043-4.353092474324512,4.45157687939718-9.459906501246223,1.876333017731667-11.214142954901035-4.096312457311797-1.105547047623986-3.764089033205892-.967726694201701-9.177844622809971-.064989488259016-10.251195947489578Z"/>
    <path class="cls-5" d="M250.712595784086261,190.052711247511979c1.116509127146855-1.327532440092909,2.96634627723688,4.503874975028339,4.756060592988433,2.805873946167594,1.39733221381357-1.325697183257034,1.371484863602745-5.925741134156851,2.452646252271734-6.583912678755041,1.076685172238285-.655445521511865,1.500457480618934,3.664107409077587,3.425998098875425,5.372983319435662,2.500141740332765,2.218818363168793,5.559209373621343-3.015730674183033,6.221908899373375-1.390805041302883.731756203147597,1.794213260865035-1.791836213080387,10.27206506929997-5.577481400347096,14.143368859256952-4.353092474326331,4.451576879396271-9.459906501249861,1.876333017732577-11.214142954904673-4.096312457309068-1.105547047622167-3.76408903320862-.967726694199882-9.177844622813609-.064989488257197-10.251195947493215Z"/>
  </g>
  <g>
    <path class="cls-3" d="M178.850504837758308,158.105666033375201c.882681824722567,4.818169752747963,1.324011478149259,7.227242149195263,2.228470203835059,8.897574473791792,3.812719589553126,7.041293953705463,15.897631840442045,9.028894564324219,19.108327995266336,1.802854147533253,2.435602196178479-5.481628037303381-.997309190124724-14.551067629015961-1.554763417144386-14.482670704514021-.438780748657337.05382759323129-.201444529679975,5.905321223081046-.658047224841539,5.905322086276101-.051978686047732.000005912225788-.093610524527321-.075806317259776-.114460392664114-.114713230193047-.639894962251674-1.195014780619204-2.107538505068987-13.966824696832191-1.906543608323773-13.943600944709942.209923901544244.024259933828034.260103855626767,13.777787241608166-.431281672952537,13.828117304669831-.679289508680995.049458893529845-2.28464238626475-13.113787793837218-2.621767068478221-13.065556877370909-.328928320741397.047058409154488,1.195290455923896,12.578686797218325.169481394535069,12.835360007141389-.348527515715432.087217271852751-.898888685020211-1.265792090546711-1.452609203746761-2.627052000041658-1.277407251989644-3.140417047806295-1.49933557368513-5.496159229547629-1.742573367369914-5.476030401334356-.404090096754771.033430781277275-.12994944744878,6.56427622900901-.248396017816049,6.566720371291922-.162115961394193.003329063292767-.787693629316891-12.226238264223866-1.330072639432728-12.255772298373813-.513031362195761-.027921418194637-.538855911592691,10.881690999504826-1.403493189035544,10.884431836630029-.793022998664128.00249154805897-1.693753637128793-9.172105922250012-2.250338600199029-9.129112179711228-.500176411886969.038651689346807-.063812606386819,7.470291974942484-.677146066498608,7.542871218494838-.705197502159535.083443483104929-2.17082333340386-9.635585311987597-2.638098892991366-9.558947798952431-.489216772778491.080224634823935.814957641940964,10.783125481523712-.005318621726474,10.98290844335861-.794771927335205.193571752186472-2.862008369390423-9.64915590021883-3.498311141702288-9.475765630895694-.473185833559.128959913414292.083334994826146,5.732272822816412,1.026941531286866,10.883062176909334Z"/>
    <path class="cls-5" d="M184.028185499485517,160.958700995403888c.692179290772401,3.845911014261219,1.038260238564362,5.768856535118175,1.738751780838356,7.103777876373897,2.952901980468596,5.627367255167883,12.25796205759525,7.246116379184059,14.709307892264405,1.490686747561995,1.85956652083587-4.366032134002126-.806502469937186-11.610219523216983-1.235297850919778-11.557191602088096-.337511426301717.041732169933312-.139173812142872,4.71015769432961-.490544216660055,4.708902944185866-.039999248831009-.000138200271067-.072239689924572-.060728556178219-.088388720419061-.09182217043417-.495625952069531-.955030148299556-1.659291960916562-11.147217891236323-1.504557636276331-11.128139519627439.161608260099456.019929490705181.237124597855654,10.991341973761337-.294783685924813,11.029589599907922-.522602346198255.037585947037769-1.793290341623106-10.467231984298451-2.052589183097552-10.42968481283151-.252994624527673.036634391140979.953563423363448,10.03738338589028.164859140482804,10.239312722677823-.267969085356526.068615477980529-.695119820111358-1.012201758547235-1.124877818448113-2.099609744557711-.991431680435198-2.508642523491289-1.16853318516587-4.388442950886201-1.355658456094716-4.373054846513696-.310870583366523.02555688850407-.082388052928763,5.236006789601561-.173529926993069,5.237630825807173-.12474449567253.002209873304309-.638958969605483-9.755112296895277-1.056416240671751-9.780163062638167-.394868988772032-.023683679962232-.385470887744304,8.678911182201773-1.050829628296015,8.678720226678706-.61024992683997-.000192909995349-1.328006825188822-7.321303110568806-1.756201437441632-7.288537076068678-.384798074273021.02945744808585-.029062758321743,5.958923045459414-.500847778627758,6.01513358745251-.542448195474208.064624431525772-1.696370778730852-7.692335223588088-2.055748675315954-7.632485785448807-.376252738900803.062650579738147.656067572679603,8.604007192622703.025374725653819,8.761119940448225-.611083107791274.152228151858253-2.228296224995574-7.705060994259838-2.717486387190547-7.56849602287275-.363785658756569.101571092829545.079508862724651,4.572898913454992.819464103137761,8.684310171986908Z"/>
    <path class="cls-5" d="M179.195694494880627,162.628613351186686c.69217929077513,3.845911014260309,1.038260238565272,5.768856535119994,1.738751780840175,7.103777876374807,2.952901980466777,5.627367255166973,12.257962057591612,7.246116379184059,14.709307892263496,1.490686747561085,1.859566520836779-4.366032134002126-.806502469937186-11.610219523216983-1.235297850917959-11.557191602087187-.337511426306264.041732169932402-.139173812144691,4.71015769432961-.490544216660965,4.708902944185866-.039999248831919-.000138200271977-.072239689923663-.06072855617731-.088388720419061-.091822170433261-.49562595207135-.955030148300466-1.659291960916562-11.147217891238142-1.504557636275422-11.128139519628348.161608260099456.019929490705181.237124597852926,10.991341973761337-.294783685924813,11.029589599907013-.522602346198255.037585947038679-1.793290341629472-10.467231984295722-2.052589183097552-10.429684812830601-.252994624528583.03663439113825.953563423362539,10.037383385887551.164859140480075,10.239312722676914-.267969085355617.068615477982348-.69511982010772-1.012201758549054-1.124877818447203-2.099609744557711-.991431680433379-2.50864252349038-1.168533185164961-4.388442950886201-1.355658456092897-4.373054846511877-.310870583367432.02555688850407-.082388052929673,5.236006789599742-.173529926995798,5.237630825806264-.124744495671621.0022098733034-.638958969603664-9.755112296897096-1.05641624067448-9.780163062639076-.394868988769304-.023683679962232-.385470887739757,8.678911182201773-1.050829628295105,8.678720226681435-.610249926836332-.000192909996258-1.328006825186094-7.321303110572444-1.756201437442542-7.288537076072316-.384798074270293.029457448087669-.029062758320833,5.958923045460324-.50084777862412,6.015133587455239-.542448195474208.064624431525772-1.696370778729033-7.692335223589907-2.055748675311406-7.632485785449717-.37625273890535.062650579738147.656067572676875,8.604007192622703.025374725649272,8.761119940447315-.611083107792183.152228151859163-2.228296224993755-7.705060994258929-2.717486387192366-7.568496022871841-.363785658752022.101571092829545.07950886272647,4.572898913454992.819464103138671,8.684310171985999Z"/>
    <path class="cls-3" d="M180.273065079269145,168.863984451653778c.992433038902163-1.160795480611341,4.764943827452953,4.117268875017544,6.469716266462456,2.642123155777881,1.33102098346717-1.151704330425673.080853804331127-5.277246273921264,1.208115253643882-5.838763417410519,1.122594652263615-.559191398375333,2.777517821114998,3.325384619696706,5.548669768112632,4.90878457774761,3.598091207038124,2.055899477761159,5.893909465023171-2.556812291551978,7.122395565552324-1.082172265735608,1.356490579491947,1.62827104340613.564867290554503,9.163447543136499-2.966996712848413,12.534474329981094-4.061274590366338,3.876312559888902-10.892167452147987,1.431695719275012-14.58700740239874-3.970482053934575-2.328554808646004-3.404567802104793-3.597311542191164-8.255425153939541-2.79489273852414-9.193964326425885Z"/>
    <path class="cls-5" d="M180.834317645169904,174.128973166860305c.969783214502058-1.115053429243744,4.693652264470984,4.044407397547729,6.361522924287783,2.632176513478043,1.30220961577561-1.102583831710945.058976175412681-5.117095625549155,1.163436592907601-5.649503606019607,1.099888019640275-.530202778701096,2.739538395646377,3.254982634393855,5.466094215261364,4.82048868016318,3.540187141755268,2.032665927412381,5.776159089225075-2.416056217139158,6.98786184803339-.972670465958799,1.337958380284363,1.593760831670807.58994836688089,8.892969515502045-2.864247201478975,12.12414832358354-3.971964066947294,3.715502479790302-10.687290085053064,1.270974592875973-14.335389522610058-4.008015700679607-2.299098163271083-3.326932289622164-3.563384466275238-8.045068503809489-2.779278856401106-8.94662374456675Z"/>
    <path class="cls-3" d="M181.655677927080433,179.618948768314112c.973222121964682-1.230464080465026,4.493422428526173,3.936550794304821,6.155595990061556,2.349963803812898,1.297760803690835-1.238712881670835.175173011639345-5.365166298103759,1.266608785629614-5.993804423246729,1.086917272875326-.626034485651871,2.602125393259485,3.234728060138877,5.230374230543021,4.700156555482863,3.412544441202044,1.902724115388082,5.699580645239621-2.901739892633486,6.850420368089544-1.467136087121617,1.270754093703545,1.584062823661952.37217715839779,9.279693703620978-3.077258376133614,12.886596092650507-3.966490166707445,4.147544603345523-10.472109669100064,2.016872017087735-13.915527190011744-3.280236652391977-2.170103525888408-3.338351640882138-3.297099747775064-8.200670587303648-2.510213808178378-9.195539289185945Z"/>
    <path class="cls-5" d="M182.653206101848809,184.436500093980612c.916904866048753-1.250967039812167,4.054959655460152,3.608210965822764,5.611394682026003,1.974095729647161,1.215203637320883-1.275821895114859.260470459895259-5.243882624040452,1.274809252136947-5.913767794630076,1.010139449143935-.667110796744055,2.330492821502958,3.021382308991633,4.717811539930153,4.315100141497169,3.099718430029498,1.67977335085925,5.289902738541969-3.126394496624016,6.32053385380641-1.786243714231205,1.138020498973674,1.479768606212019.169738021409103,9.034955515728143-3.066094923408855,12.732854078065429-3.720869227888215,4.252181075697081-9.657890572862925,2.510174761450799-12.722993188412147-2.479912458363287-1.931682335716687-3.144860758813593-2.876812452635022-7.830679715988481-2.135461216078511-8.842125981985191Z"/>
    <path class="cls-3" d="M183.258991890666039,187.619073996844236c.915403898829936-1.371323668229707,3.810145445066155,3.46810309063585,5.351280595240496,1.6506803725797,1.203257273256895-1.418939864845015.387424688571627-5.487808019051045,1.3814978456885-6.260205566900368.989957685684203-.769198729158234,2.165098623405356,2.981516135318088,4.429927895244873,4.157111813764459,2.940676983665071,1.5264022487072,5.174648325235466-3.645257637461327,6.132032166094177-2.322566305355394,1.057141621575283,1.460488943519522-.071999142018285,9.410243081918452-3.283855544525977,13.502133902281457-3.69329831613959,4.705230283218043-9.364143853841597,3.320279314382788-12.185235030997319-1.66097888018885-1.77790148551594-3.139297355900453-2.565785406874056-7.957416597593692-1.82564792674475-9.066175336181004Z"/>
    <path class="cls-5" d="M183.980800949098011,189.965687475704726c.915403898828117-1.371323668225159,3.810145445067064,3.468103090637669,5.351280595241406,1.650680372581519,1.203257273256895-1.418939864844106.387424688570718-5.487808019051045,1.381497845686681-6.260205566900368.989957685682384-.769198729158234,2.165098623403537,2.981516135318998,4.429927895243054,4.157111813765368,2.9406769836678,1.526402248705381,5.174648325240923-3.645257637465875,6.132032166094177-2.322566305356304,1.057141621576193,1.460488943520431-.071999142017376,9.410243081917542-3.283855544523249,13.502133902278729-3.693298316140499,4.705230283218043-9.364143853843416,3.320279314385516-12.185235030998228-1.660978880183393-1.77790148551594-3.13929735590591-2.565785406873147-7.95741659759824-1.825647926743841-9.066175336185552Z"/>
  </g>
  <g>
    <path class="cls-2" d="M112.928561272273328,106.267913012160534c-11.69854736328125-20.713287353515625-58.69439697265625-26.545318603515625-85.138702392578125-7.883209228515625-54.478302001953125,38.44610595703125-15.54266357421875,176.477569580078125,4.729949951171875,177.372283935546875,4.740997314453125.209228515625,7.38812255859375-7.12908935546875,18.131378173828125-29.95623779296875,47.867584228515625-101.708343505859375,72.86151123046875-120.792694091796875,62.277374267578125-139.5328369140625Z"/>
    <path class="cls-4" d="M213.643893303523328,368.348174242629284c2.7957763671875,2.99249267578125.350311279296875,7.8843994140625-1.313873291015625,17.60589599609375-2.656158447265625,15.51611328125,1.190704345703125,17.4918212890625-2.364959716796875,22.07293701171875-1.265899658203125,1.6309814453125-2.6383056640625,2.57305908203125-25.226287841796875,9.45989990234375-8.48529052734375,2.58709716796875-10.038421630859375,2.98675537109375-12.613128662109375,4.72991943359375-7.251708984375,4.90972900390625-6.459808349609375,9.544921875-12.6131591796875,12.61309814453125-5.783233642578125,2.88360595703125-13.0279541015625,2.05279541015625-18.131378173828125-.78826904296875-3.7296142578125-2.0762939453125-5.554107666015625-4.80224609375-8.671539306640625-9.45989990234375-3.019927978515625-4.51202392578125-7.912445068359375-11.82183837890625-5.51824951171875-14.97808837890625,1.73779296875-2.29095458984375,7.121429443359375-2.13897705078125,10.865814208984375,0,6.856414794921875,3.916748046875,5.105560302734375,12.718994140625,9.63055419921875,14.1898193359375,4.836456298828125,1.57208251953125,13.00848388671875-6.4774169921875,16.55474853515625-14.9781494140625,5.23443603515625-12.54742431640625-.029571533203125-25.07000732421875-.788330078125-26.80291748046875-7.430145263671875-16.9697265625-21.693634033203125-14.14825439453125-44.14599609375-32.3211669921875-24.352386474609375-19.7108154296875-37.051055908203125-45.7225341796875-37.05108642578125-45.72259521484375-7.83880615234375-15.6776123046875-10.0694580078125-29.90704345703125-20.496337890625-32.3211669921875-3.05242919921875-.70672607421875-10.92047119140625-1.36669921875-16.729949951171875,2.97808837890625-4.219207763671875,3.15545654296875-5.147003173828125,7.3011474609375-9.28466796875,8.05841064453125-3.821197509765625.6993408203125-7.290802001953125-2.05657958984375-8.6715087890625-3.1533203125-8.64227294921875-6.86468505859375-11.23590087890625-23.13201904296875-11.8248291015625-44.14599609375-.34588623046875-12.3416748046875-.673095703125-26.6505126953125,2.364959716796875-47.29925537109375,1.9656982421875-13.360321044921875,3.678253173828125-26.8858642578125,10.2481689453125-43.357666015625,8.327423095703125-20.878143310546875,15.926544189453125-39.930206298828125,33.8978271484375-48.08758544921875,5.229705810546875-2.37384033203125,10.918548583984375-3.21282958984375,10.91864013671875-3.212860107421875,2.28326416015625-.388885498046875,8.570831298828125-1.291015625,16.672576904296875.0595703125,4.3399658203125.723480224609375,12.041900634765625,2.334259033203125,19.248199462890625,7.6861572265625.485992431640625.360931396484375,8.015838623046875,6.036834716796875,6.797271728515625,9.2308349609375-.071258544921875.186737060546875-.157867431640625.27020263671875-2.264434814453125,2.65966796875-1.533294677734375,1.73919677734375-1.916839599609375,2.121826171875-2.8248291015625,3.153289794921875-.66473388671875.755126953125-2.285064697265625,2.652069091796875-4.003265380859375,4.920074462890625-1.11993408203125,1.478302001953125-1.80767822265625,2.572052001953125-2.763153076171875,4.079925537109375-5.54107666015625,8.74468994140625-5.06024169921875,7.704498291015625-6.76641845703125,10.576629638671875-3.115631103515625,5.2447509765625-5.1627197265625,9.460205078125-6.240875244140625,11.69342041015625-6.319732666015625,13.09027099609375-9.350250244140625,23.86285400390625-10.116790771484375,26.671539306640625-.545379638671875,1.9984130859375-1.92633056640625,7.225830078125-3.105926513671875,14.080902099609375-3.46356201171875,20.128082275390625-2.17156982421875,36.740325927734375-1.3857421875,43.994781494140625,1.640167236328125,15.141357421875,5.13067626953125,26.9512939453125,7.47381591796875,33.8221435546875,4.023406982421875,11.79803466796875,8.4913330078125,20.24420166015625,10.025146484375,23.065673828125,7.1651611328125,13.1805419921875,14.608184814453125,21.91259765625,19.051116943359375,27.065673828125,4.826568603515625,5.5980224609375,12.813720703125,14.74957275390625,25.565399169921875,24.0391845703125,8.466888427734375,6.16815185546875,15.714569091796875,9.978759765625,18.956634521484375,11.608642578125,5.66522216796875,2.84814453125,15.23651123046875,7.150390625,27.215179443359375,10.20623779296875,11.12432861328125,2.837890625,16.686492919921875,4.2568359375,20.496337890625,4.46710205078125,4.66302490234375.25738525390625,7.17938232421875-.03900146484375,8.934326171875,1.83941650390625Z"/>
    <path class="cls-2" d="M224.161685051570203,367.524809984816784c-.40625,3.376953125-.6712646484375,6.8046875-.795166015625,10.28326416015625-.23114013671875,6.49072265625,0,13.98089599609375,0,22.42333984375v.000244140625c.00335693359375.0360107421875.34600830078125,3.71002197265625-.5391845703125,9.44427490234375-.2647705078125,1.71490478515625-.46002197265625,2.11517333984375-.69439697265625,2.4678955078125-2.939849853515625,4.42413330078125-15.459075927734375,1.3963623046875-15.583953857421875-.70074462890625-.047088623046875-.7908935546875,1.70068359375-.910888671875,3.41607666015625-3.41607666015625,1.013092041015625-1.47955322265625,1.3992919921875-2.82769775390625,1.498199462890625-3.21514892578125.4683837890625-1.8349609375.165618896484375-3.08685302734375-.0677490234375-5.269287109375,0-.0001220703125-.135833740234375-1.2703857421875-.225555419921875-6.1368408203125-.048065185546875-2.6063232421875.856781005859375-6.17193603515625,1.7752685546875-10.7098388671875,1.4569091796875-7.19805908203125,2.05609130859375-10.8614501953125.69866943359375-13.0338134765625-.7041015625-1.1268310546875-2.503814697265625-3.1925048828125-7.55474853515625-3.87591552734375"/>
    <path class="cls-4" d="M110.419436516414862,113.127898363723034c1.222045898436591.606475830078125,2.056488037108466.264129638671875,2.056579589842841.26409912109375.404296875-.165863037109375.631622314453125-.452453613280341.85400390625-.722625732421875.649719238282159-.789337158203125,1.428375244140625-1.46746826171875,2.067352294921875-2.2655029296875.26043701171875-.325286865234375,1.05523681640625-1.154296875,2.64483642578125-2.81231689453125,6.38433837890625-6.6591796875,13.86517333984375-12.676483154296875,13.865264892579034-12.676544189453125,1.082275390625-.87054443359375,2.011413574217841-1.592681884765625,2.722534179686591-2.138061523436591,3.910491943359375-2.999084472657159,10.618408203125-7.829040527344659,19.044342041015625-12.384643554688409,6.947418212890625-3.756256103515625,12.475860595703125-6.081298828125,14.12554931640625-6.748870849609375,4.017791748046875-1.625885009765625,7.415435791016534-2.758941650390625,9.384124755859375-3.412017822265625.000091552734375-.000030517578125,4.887176513671875-1.621215820311591,9.670196533203125-2.904205322265625,13.84967041015625-3.714996337890625,18.02532958984375-1.91107177734375,22.585296630859375-4.32208251953125,13.10382080078125-6.928436279296875,16.6708984375-40.862060546875,3.049560546875-49.401458740234375-7.224914550780341-4.529388427734375-17.899475097655341-1.042144775390625-18.804718017578125-.73431396484375-6.943511962890625,2.361114501953125-7.4156494140625,5.877807617188409-13.675506591796875,9.405853271484375-14.0987548828125,7.946044921875-29.037933349609375-.123382568359375-31.277374267578125,4.783935546875-1.649658203125,3.6148681640625,6.88653564453125,7.2041015625,9.19488525390625,18.3941650390625.436126708984375,2.11419677734375,2.269561767578125,11.002166748046875-3.06494140625,18.3941650390625-3.69195556640625,5.115936279296875-10.34271240234375,8.857666015625-16.85736083984375,7.883209228515625-1.092987060546875-.163482666015625-6.35321044921875-.69842529296875-8.173248291014716-4.204376220703125-.945953369141534-1.822235107421875-.3232421875-3.2010498046875-.208831787110284-6.55767822265625.12957763671875-3.801513671875-.372589111328125-10.7325439453125-2.1021728515625-11.233551025390625-2.903564453125-.841064453125-11.6007080078125,15.87701416015625-16.078826904296875,34.608734130859375-4.850158691405341,20.28790283203125-2.228179931640625,28.185272216796875-1.021545410155341,28.784088134765625Z"/>
    <path class="cls-2" d="M110.111025871882703,101.895659594191784c-2.82061767578125.430633544921875-6.892822265625-12.7012939453125-7.296234130859375-14.021789550780341-3.19659423828125-10.463073730469659-7.27447509765625-24.131713867188409-.8497314453125-38.532958984375,1.17291259765625-2.629119873047784,6.268646240234375-14.170776367188409,18.919708251954034-19.445251464844659,1.788452148436591-.745635986328125,19.795196533202216-7.9615478515625,32.2333984375,3.342712402344659,6.498840332030341,5.906372070311591,11.193939208983466,16.610382080077216,7.445434570311591,26.613494873045966-3.873046875,10.335479736329034-16.08221435546875,18.11383056640625-24.175201416015625,14.715301513671875-5.427459716795966-2.2791748046875-8.25140380859375-9.26934814453125-8.986175537109375-13.92999267578125-.939086914061591-5.95672607421875,1.214691162109375-10.13665771484375.413360595703125-10.453948974609375-1.23748779296875-.489990234375-7.64447021484375,8.974700927734375-11.660736083984375,21.493438720703125-5.475830078125,17.068145751953125-3.294830322265625,29.799285888671875-6.0438232421875,30.218994140625Z"/>
    <path class="cls-2" d="M214.304310873029863,63.163756518019909c6.446225132744985-1.1788330078125,13.822821848378226-50.161224365233466-.047226671346834-55.341094970703125-5.407854095429684-2.019592285155341-11.997852732215506,2.6292724609375-17.166864248555612-1.051086425780341-2.672986497060265-1.903167724610284-2.045955457062519-5.093597412110284-4.683629703772567-6.306579589844659-3.233641589580657-1.487030029296875-7.848155336913806.774108886719659-10.304003820269827,4.204376220703125-3.220926716525355,4.498931884766534-.753871904375046,8.250518798828125-2.810171664940754,12.08758544921875-5.118398317059473,9.550872802734375-28.466815147131456,1.35284423828125-29.506941021647435,5.2554931640625-.56188655722417,2.108184814453125,5.541868241699376,7.1627197265625,12.17746185910255,8.40875244140625,8.950470178915566,1.68072509765625,17.927632355263086-3.744415283203125,22.949853279043054-9.459869384765625,2.11011476807289-2.401428222655341,2.59820580298765-4.242095947265625,5.151986516825673-5.781005859375,4.102870949979661-2.472412109375,9.297804798313337-2.007781982421875,13.114175485209671,0,7.293288128495988,3.83697509765625,9.102987082345862,12.596649169921875,9.367290194162706,14.18975830078125,2.454155219390486,14.792602539063409-11.440707314094652,30.77154541015625-24.980630933645443,37.051116943359375-3.881453596434767,1.8001708984375-8.345851796510033,3.0863037109375-8.25093665454915,3.383209228515625.193986477293038.60687255859375,19.003963292039771-4.27227783203125,25.879415446910571-5.354034423828125,2.096137643697148-.329803466796875,4.166014302610165-.624114990233466,4.16610666246288-.624114990233466,3.122686619867636-.444000244141534,4.627967499210172-.604675292969659,4.944115275010518-.662506103516534Z"/>
    <path class="cls-2" d="M49.065931650667153,278.76689677415834c.421864443451341.499096478981301,3.885572530921308-3.342035095462052,8.385151967108868-3.025262954401114,10.554726264983401.743023207540318,14.806655417053662,23.519371132417291,17.415323307003746,22.992073406921918,2.938019296230777-.593912630047271,3.69777481093297-30.728396752614572-7.095138191315527-33.278033036176566-8.078298333159182-1.90836242390651-19.494631847964229,12.377442771796268-18.705337082797087,13.311222583655763Z"/>
    <path class="cls-2" d="M141.316186169270622,377.843495154628727c.198440765396299.805796578639274,6.129628238181795-1.984802153820056,10.959098368332889.677684537240566,11.32857368837449,6.245392340879334,3.712577829929614,35.393525408628193,6.897745761290935,36.09474643071735,3.587326865184878.789702156956992,20.760796020724229-34.529356547900534,10.146439127012854-43.036409809727047-7.944648978113037-6.367381414955162-28.374566897068689,4.756375551221936-28.003283256636678,6.263978841769131Z"/>
    <path class="cls-2" d="M76.665774407038953,103.114623217238659c-1.94189453125-2.04388427734375-34.06170654296875,12.4412841796875-39.416046142578125,40.992706298828125-4.648773193359375,24.78912353515625,13.241607666015625,47.581634521484375,16.55474853515625,46.510955810546875,3.2308349609375-1.0440673828125-8.803070068359375-24.32708740234375,0-52.029205322265625,7.359954833984375-23.16082763671875,24.356475830078125-33.9007568359375,22.861297607421875-35.474456787109375Z"/>
    <path class="cls-2" d="M89.607734015300593,114.319308612431087c-.607216533632709-1.491619807462484-18.470803862025605,3.170002252392806-25.681118798274838,19.823134036581905-6.260191331328315,14.458720741854449-1.307811002679955,30.6076921609274.466235067327943,30.384066702000382,1.729972610127334-.218062049430955-.313565372744051-15.910653170481964,8.425398333662088-31.603742355302529,7.30635445324333-13.120459312526691,17.257006578524852-17.454979775466199,16.789485397284807-18.603458383279758Z"/>
    <path class="cls-2" d="M205.950442375788953,375.085417894973034c.87109375.36285400390625-.76153564453125,3.52056884765625-1.576629638671875,13.4014892578125-.882415771484375,10.69671630859375.295989990234375,15.905029296875-1.576629638671875,16.55474853515625-1.65997314453125.575927734375-4.91571044921875-2.70831298828125-6.30657958984375-6.30657958984375-4.0673828125-10.52252197265625,7.5338134765625-24.4520263671875,9.4598388671875-23.649658203125Z"/>
    <path class="cls-2" d="M25.424899162898328,208.749663500441784c-1.572509765625-.003875732421875-9.225372314453125,56.82958984375,7.09490966796875,63.85400390625,1.657745361328125.7135009765625,4.7894287109375,1.4410400390625,6.306549072265625,0,3.27618408203125-3.1119384765625-3.990478515625-13.4747314453125-8.6715087890625-26.80291748046875-7.42041015625-21.1279296875-3.897552490234375-37.049041748046875-4.729949951171875-37.05108642578125Z"/>
    <polyline class="cls-2" points="212.855380119929578 63.353972582473034 222.108218254695203 28.666014818801159 225.731448235163953 62.920012621535534 214.304324211726453 63.163756518019909"/>
  </g>
  <g>
    <path class="cls-2" d="M330.80288696792104,106.267913012158715c11.698547364210754-20.713287352990847,58.694396973847688-26.545318600880819,85.138702392931009-7.883209224693928,54.478302000228723,38.446105959477791,15.542663566295232,176.477569580776617-4.729949959135411,177.372283935334053-4.740997314460401.209228515412178-7.388122558273608-7.129089355799806-18.131378172482073-29.956237793781838-47.867584223949962-101.708343508008511-72.861511225044524-120.792694095068327-62.277374261313525-139.532836916858287Z"/>
    <path class="cls-4" d="M230.087554924903998,368.348174238105457c-2.795776367320286,2.99249267565574-.350311279651578,7.884399414046129,1.313873290224365,17.605895996151958,2.656158446570771,15.516113281370053-1.190704346487109,17.491821289009749,2.364959715807345,22.07293701182607,1.265899658130365,1.630981445368889,2.638305663946085,2.573059082149484,25.226287841371231,9.459899903475161,8.485290527227335,2.587097168350738,10.03842163072477,2.986755371544859,12.613128661898372,4.729919434161275,7.251708984153083,4.909729004231849,6.459808349180094,9.544921875289219,12.613159179119975,12.613098145096956,5.783233642448977,2.883605957291365,13.027954101471551,2.052795410741965,18.131378173864505-.788269042153843,3.729614257905268-2.076293945145153,5.554107666230266-4.802246093500798,8.67153930706445-9.459899901954486,3.019927978717533-4.512023925646645,7.91244506889052-11.821838378551547,5.518249512391776-14.978088378658867-1.737792968646318-2.290954589921967-7.121429443262969-2.138977051101392-10.865814208984375-.000000000487489-6.856414795098317,3.916748046565772-5.105560303305538,12.718994140395807-9.630554199857215,14.189819335504581-4.836456298897247,1.57208251931479-13.008483886427712-6.477416992771396-16.554748534483224-14.978149414806467-5.234436034592363-12.5474243166409.029571534329079-25.070007324216931.788330079329171-26.80291748043237,7.430145264432213-16.969726562167125,21.693634033837952-14.148254393558091,44.145996095201554-32.321166990206621,24.352386475493404-19.710815428594287,37.051055910254945-45.722534178023125,37.05108642783307-45.722595213179375,7.838806153047699-15.677612304336435,10.069458009154914-29.907043456580141,20.496337892076554-32.321166991267091,3.052429199251492-.706726074082326,10.920471191468096-1.366699218260692,16.72994995103727,2.978088379657493,4.219207763529994,3.155456543157925,5.147003173500707,7.301147461168512,9.28466796838984,8.058410644947799,3.821197509732883.699340820483485,7.290802002044074-2.056579589516332,8.671508789204381-3.153320312110736,8.642272949526159-6.864685058206305,11.235900879943074-23.13201904246489,11.824829103543379-44.145996093218855.345886231023542-12.341674804672948.673095704321895-26.650512695282487-2.364959714674114-47.299255371200161-1.965698241587233-13.360321045010096-3.678253172620316-26.885864257978028-10.248168943366181-43.357666016085204-8.327423094764526-20.878143310920677-15.926544187659601-39.930206299542988-33.897827146276541-48.087585450741244-5.229705810441374-2.3738403322659-10.918548583840675-3.212829590333968-10.91864013657505-3.212860107912093-2.283264160139879-.388885498148738-8.570831298771736-1.291015625384716-16.672576904298694.059570311751486-4.339965820345242.723480224414743-12.041900634871126,2.334259032662885-19.248199463236233,7.68615722569848-.485992431658815.360931396462547-8.015838623319723,6.036834716437625-6.797271728930355,9.230834960632819.07125854491278.186737060549603.157867431627892.270202636726026,2.264434814333072,2.659667968851863,1.533294677656158,1.739196777411962,1.916839599514788,2.121826171960493,2.824829101420619,3.153289795048295.664733886686008.755126953155013,2.285064697147391,2.652069091899648,4.003265380639277,4.920074463070705,1.119934081963947,1.478302002003147,1.807678222541654,2.57205200203407,2.763153075988157,4.079925537233066,5.541076659763348,8.744689941655452,5.060241698873142,7.704498291242999,6.766418456556494,10.576629638975646,3.115631103280975,5.244750976702562,5.162719726138675,9.460205078356921,6.240875243614937,11.693420410436374,6.31973266542991,13.090270996377512,9.350250243071059,23.862854004326437,10.11679077028748,26.671539307094463.545379638582745,1.998413085962056,1.92633056608247,7.225830078212311,3.105926513038867,14.080902099749437,3.463562010816531,20.128082275546149,2.171569822570746,36.7403259278326,1.385742185524578,43.994781494202471-1.640167237006608,15.14135742180224-5.130676270739059,26.951293945081488-7.473815919485787,33.822143554352806-4.02340698295302,11.798034667786851-8.491333008721995,20.244201659774262-10.025146485411824,23.065673827673891-7.165161133401853,13.180541991865539-14.608184815435379,21.912597655595164-19.05111694457446,27.065673827270075-4.826568603766646,5.59802246072104-12.813720703787112,14.749572753331449-25.565399170998717,24.039184569164718-8.46688842801268,6.168151855088581-15.714569092246165,9.978759764919232-18.956634522008244,11.608642577273713-5.665222168096079,2.848144530995341-15.236511230788892,7.15039062431606-27.215179443815941,10.206237791746389-11.124328613408579,2.837890624501597-16.686492920112869,4.256835936750576-20.496337890826908,4.467102049860841-4.663024902354664.257385253697066-7.179382324215112-.039001465165711-8.934326171956855,1.839416503506072Z"/>
    <path class="cls-2" d="M219.569763176893503,367.52480997982002c.406249999849024,3.37695312501819.671264648133729,6.804687500030923.795166015164796,10.28326416019263.231140136425893,6.490722656260914-.000000000627551,13.98089599609375-.00000000100772,22.42333984375v.000244140625c-.003356933595569.0360107421875-.346008300946778,3.710021972639879.539184569888675,9.444274902367397.264770507736102,1.714904785168983.460021972561663,2.115173339865578.694396972545292,2.467895507843423,2.939849853317355,4.424133300914036,15.459075927672529,1.396362305382354,15.583953857454617-.700744628205939.047088623081436-.790893554685681-1.700683593709982-.910888671951398-3.416076660003455-3.416076660309045-1.013092040950141-1.479553222701725-1.399291992060171-2.827697753969915-1.498199462746925-3.215148925848553-.468383788980645-1.834960937521828-.165618896344313-3.086853027351026.067749023673969-5.269287109373181,0-.0001220703125.135833740290764-1.270385742180224.225555420196542-6.136840820301586.048065185665109-2.606323242185681-.85678100558107-6.171936035194449-1.775268554205468-10.709838867267536-1.456909179365539-7.198059082096734-2.056091308106261-10.861450195405268-.698669433009854-13.033813476593423.704101562550932-1.126831054656577,2.503814697411144-3.192504882699723,7.554748535330873-3.875915527005418"/>
    <path class="cls-4" d="M333.312011723471187,113.127898363833083c-1.222045898462966.606475830023555-2.056488037120289.264129638580016-2.056579589854664.264099121001891-.404296874992724-.165863037127565-.631622314433116-.452453613308535-.854003906217258-.722625732460074-.649719238246689-.789337158232229-1.428375244075141-1.467468261783324-2.067352294820012-2.265502929780268-.260437011704198-.325286865246198-1.055236816355318-1.154296875047294-2.64483642565574-2.812316894650394-6.384338378606117-6.659179687786491-13.865173339274406-12.676483154918969-13.865264892008781-12.676544190075219-1.082275390586801-.870544433642863-2.01141357414599-1.592681884856574-2.722534179591094-2.138061523559372-3.91049194322477-2.999084472832692-10.618408202773935-7.829040527821235-19.044342040460833-12.384643555543335-6.947418212721459-3.756256103827582-12.475860595430277-6.081298828685249-14.125549316102479-6.748870850243293-4.017791747974115-1.625885009945705-7.415435790893753-2.7589416507235-9.384124755704761-3.412017822686721-.000091552734375-.000030517578125-4.887176513599115-1.621215820531688-9.670196533073977-2.904205322700363-13.849670409990722-3.71499633851181-18.025329589758257-1.911071778152291-22.585296630664743-4.322082520545337-13.103820800472022-6.928436279884409-16.670898435666459-40.862060547623514-3.049560544657652-49.401458740370799,7.224914550983158-4.529388427409685,17.899475097701725-1.042144774587541,18.804718017610867-.734313963999739,6.943511962785124,2.361114502265082,7.415649413798747,5.877807617521285,13.675506591374869,9.405853272098284,14.098754882455978,7.946044922508008,29.037933349614832-.12338256705516,31.277374267363484,4.78393554827926,1.64965820296311,3.614868164137079-6.88653564485503,7.204101562190772-9.194885254732071,18.394165038649589-.436126709080781,2.114196777324651-2.269561768071071,11.002166747945012,3.064941405424179,18.394165039200743,3.691955566175238,5.115936279462403,10.342712401945391,8.857666016088842,16.857360839489047,7.883209229272325,1.092987060554151-.163482665966512,6.353210449251492-.698425292684078,8.1732482912048-4.204376220336599.94595336922248-1.822235107379129.323242187641881-3.201049804672948.208831787404051-6.557678222646246-.129577636547765-3.801513671881366.372589111810157-10.732543945296129,2.10217285206636-11.233551025296947,2.903564453163199-.841064452994033,11.600708007101275,15.87701416067739,16.078826902743458,34.608734131581514,4.850158690494936,20.287902832248619,2.228179930376427,28.185272216896919,1.021545408862949,28.7840881348111Z"/>
    <path class="cls-2" d="M333.620422368508116,101.895659594316385c2.820617675761241.430633545048295,6.892822266196163-12.701293945003272,7.296234131488745-14.021789550452922,3.196594238750549-10.463073730325959,7.274475098740368-24.131713866861901.849731447042359-38.532958984336801-1.172912597538016-2.629119873100535-6.268646239599548-14.170776367470353-18.919708251081829-19.445251465694128-1.78845214840112-.745635986408161-19.795196532842965-7.961547852451076-32.233398437649157,3.342712400897653-6.498840332296822,5.906372070019643-11.193939209730161,16.610382079574265-7.445434571505757,26.613494872711271,3.873046874534339,10.335479736502748,16.082214354653843,18.113830567128389,24.175201415353513,14.715301514757812,5.427459716898738-2.279174804444665,8.251403809010299-9.269348144161086,8.986175537735107-13.929992675378344.939086914328072-5.956726074176913-1.214691161654628-10.13665771489832-.413360595233826-10.453948974627565,1.237487792990578-.489990234319521,7.644470214439934,8.974700928077255,11.660736083020311,21.493438721226084,5.475830077357386,17.068145752199598,3.294830320926849,29.799285888820123,6.043823240830534,30.218994140896939Z"/>
    <path class="cls-2" d="M229.42713736909991,63.163756513466069c-6.446225132691325-1.178833008101719-13.822821846126317-50.161224365853741.047226673830664-55.341094970700397,5.407854095521543-2.019592284912505,11.997852732098181,2.629272461475921,17.166864248601996-1.051086425009998,2.672986497145757-1.903167724490231,2.045955457291711-5.093597412018426,4.683629704057239-6.306579589634566,3.23364158964614-1.487030029151356,7.848155336878335.774108887072543,10.304003820081562,4.204376221166058,3.220926716323447,4.498931884911144.753871904003972,8.250518798861776,2.810171664397785,12.08758544934517,5.118398316630191,9.550872802963568,28.46681514707052,1.35284423955909,29.506941021410967,5.255493165386724.561886557128673,2.108184814478591-5.541868242022247,7.162719726314208-12.1774618594809,8.408752440859644-8.950470178990145,1.680725097254253-17.927632355094829-3.744415284008028-22.949853278616501-9.459869385796082-2.11011476796557-2.401428222749928-2.598205802798475-4.24209594738204-5.151986516568286-5.781005859606012-4.102870949867793-2.472412109559627-9.297804798221478-2.007781982839333-13.114175485208762-.000000000589353-7.293288128666973,3.836975097328832-9.102987082911568,12.596649169513512-9.367290194799352,14.189758300361063-2.454155220053508,14.792602538953361,11.44070731271313,30.771545410670115,24.980630931982887,37.051116944480782,3.881453596353822,1.800170898612123,8.345851796369971,3.086303711312212,8.250936654396355,3.383209228886699-.193986477319413.606872558584655-19.003963291848777-4.272277832885266-25.879415446670464-5.354034424990459-2.096137643682596-.329803466890553-4.166014302581971-.624114990420821-4.166106662434686-.624114990420821-3.122686619846718-.444000244281597-4.627967499183796-.604675293177024-4.944115274980504-.662506103738451Z"/>
    <path class="cls-2" d="M394.665516581781958,278.766896777023248c-.421864443473169.499096478963111-3.885572530771242-3.342035095636675-8.385151966973353-3.025262954777645-10.554726265016143.743023207067381-14.806655418109585,23.51937113175336-17.415323308036022,22.992073406139752-2.938019296203493-.593912630178238-3.697774809552357-30.7283967527801,7.095138192809827-33.278033035858243,8.078298333246494-1.908362423542712,19.494631847410346,12.377442772673021,18.705337082199549,13.311222584496136Z"/>
    <path class="cls-2" d="M302.415262058731059,377.843495153351796c-.198440765432679.805796578630179-6.129628238091755-1.984802154094723-10.959098368364721.677684536749439-11.328573688653705,6.245392340370017-3.712577831516683,35.393525408460846-6.897745762911654,36.094746430406303-3.587326865219438.78970215679692-20.760796019172631-34.529356548831856-10.146439125079269-43.036409810181794,7.944648978398618-6.36738141459864,28.374566896854958,4.756375552495228,28.003283256355644,6.263978843026052Z"/>
    <path class="cls-2" d="M367.065673833297296,103.114623218864836c1.941894531340949-2.043884277256439,34.061706542408501,12.441284181216361,39.416046140737308,40.992706300597092,4.648773192246153,24.789123535365434-13.241607668151119,47.581634520890475-16.55474853724445,46.510955809803818-3.230834960890206-1.04406738295711,8.803070069450769-24.32708740194812.000000002335582-52.029205322265625-7.359954832943913-23.160827637048897-24.356475828555631-33.900756837030713-22.86129760582844-35.474456788135285Z"/>
    <path class="cls-2" d="M354.123714224532705,114.319308613476096c.607216533699102-1.4916198074352,18.470803861882814,3.170002253222265,25.681118797383533,19.823134037735144,6.260191330678936,14.458720742135483,1.307811001306618,30.607692160985607-.466235068692185,30.384066701979464-1.72997261011551-.218062049509172.313565373458914-15.910653170468322-8.425398332241457-31.603742355680879-7.306354452655796-13.120459312855019-17.257006577741777-17.454979776241089-16.789485396449891-18.603458384033729Z"/>
    <path class="cls-2" d="M237.781005852336421,375.085417890794815c-.871093750016371.362854003866232.761535644372998,3.520568847690811,1.57662963806979,13.401489257883441.882415771004162,10.696716308633768-.295989990947419,15.905029296860448,1.576629637929727,16.554748535227191,1.659973144505784.575927734449579,4.915710449338803-2.708312988061152,6.306579590125693-6.306579589561807,4.067382812972937-10.522521972472532-7.533813475465649-24.452026367525832-9.45983886612521-23.649658203548825Z"/>
    <path class="cls-2" d="M418.306549072693997,208.749663504368073c1.572509765625-.003875732350934,9.225372311902902,56.82958984416382-7.094909670835477,63.854003905930767-1.657745361360867.71350097648974-4.789428711001165,1.441040038847859-6.306549072265625-.000000000281943-3.276184081891188-3.111938476709838,3.990478516230723-13.474731445134239,8.671508790266671-26.802917480079486,7.420410157199512-21.127929687167125,3.897552491896931-37.049041747872252,4.729949952834431-37.051086425569338Z"/>
    <polyline class="cls-2" points="230.8760681221911 63.353972577984678 221.62322998898253 28.666014813897164 218.000000006976734 62.920012616468739 229.42712403040332 63.163756513466069"/>
  </g>
</svg>