<?xml version="1.0" encoding="UTF-8"?>
<svg id="Livello_1" data-name="Livello 1" xmlns="http://www.w3.org/2000/svg" viewBox="0 0 638.707623492192397 225.5">
  <defs>
    <style>
      .cls-1 {
        fill: #000014;
      }
    </style>
  </defs>
  <rect id="Basso" class="cls-1" y="168.4990234375" width="638.707623492192397" height="13.521547232703597"/>
  <rect id="Alto_SX" data-name="Alto SX" class="cls-1" y="85.423862226927668" width="335.824817518249802" height="13.521547232701778"/>
  <rect id="Alto_DX" data-name="Alto DX" class="cls-1" x="380.029943596552584" y="85.423862226927668" width="258.677679895639812" height="13.521547232701778"/>
  <g>
    <path class="cls-1" d="M407.806925752737698,86.0234375v-35.498046875h6.689453125v35.498046875h-6.689453125ZM410.857707002737698,72.25390625v-6.4453125h11.353515625c1.203125,0,2.1796875-.40283203125,2.9296875-1.20849609375.748046875-.8056640625,1.123046875-1.86767578125,1.123046875-3.18603515625,0-1.3505859375-.37109375-2.42919921875-1.111328125-3.23486328125s-1.720703125-1.20849609375-2.94140625-1.20849609375h-11.353515625v-6.4453125h11.181640625c2.24609375,0,4.203125.45166015625,5.873046875,1.35498046875,1.66796875.9033203125,2.96484375,2.1689453125,3.892578125,3.79638671875.927734375,1.6279296875,1.392578125,3.5400390625,1.392578125,5.7373046875,0,2.18115234375-.46484375,4.08544921875-1.392578125,5.712890625-.927734375,1.6279296875-2.23046875,2.88916015625-3.90625,3.7841796875-1.67578125.8955078125-3.62890625,1.3427734375-5.859375,1.3427734375h-11.181640625Z"/>
    <path class="cls-1" d="M444.109660127737698,86.3896484375c-2.7021484375,0-4.728515625-.642578125-6.0791015625-1.9287109375-1.3515625-1.28564453125-2.0263671875-3.2548828125-2.0263671875-5.908203125,0-2.5224609375.7529296875-4.40673828125,2.2578125-5.65185546875,1.505859375-1.2451171875,3.763671875-1.86767578125,6.775390625-1.86767578125h6.34765625l.341796875,5.1025390625h-6.6650390625c-1.009765625,0-1.7666015625.19970703125-2.2705078125.59814453125-.5048828125.39892578125-.7568359375,1.00537109375-.7568359375,1.81884765625,0,.830078125.3212890625,1.44482421875.9638671875,1.84326171875.6435546875.39892578125,1.599609375.59814453125,2.869140625.59814453125,1.7734375,0,3.1005859375-.203125,3.9794921875-.6103515625.87890625-.40673828125,1.318359375-1.04150390625,1.318359375-1.904296875l.5126953125,3.6865234375c-.09765625.96044921875-.529296875,1.75390625-1.2939453125,2.38037109375-.765625.626953125-1.705078125,1.0908203125-2.8193359375,1.3916015625-1.115234375.30078125-2.267578125.45166015625-3.455078125.45166015625ZM451.165324190237698,86.0234375v-16.064453125c0-1.171875-.390625-2.0751953125-1.171875-2.7099609375s-1.888671875-.9521484375-3.3203125-.9521484375c-.9443359375,0-1.8798828125.15087890625-2.8076171875.45166015625-.927734375.30126953125-1.75.73681640625-2.4658203125,1.30615234375l-4.150390625-4.0771484375c1.0087890625-1.1552734375,2.34375-2.0546875,4.00390625-2.69775390625,1.66015625-.642578125,3.4990234375-.96435546875,5.517578125-.96435546875,3.3359375,0,5.916015625.822265625,7.7392578125,2.4658203125,1.822265625,1.64404296875,2.734375,3.96337890625,2.734375,6.9580078125v16.2841796875h-6.0791015625Z"/>
    <path class="cls-1" d="M463.836222627737698,86.0234375v-25.341796875h6.689453125v25.341796875h-6.689453125ZM478.484660127737698,86.0234375v-15.3564453125c0-1.2529296875-.353515625-2.21728515625-1.0625-2.89306640625-.70703125-.67529296875-1.712890625-1.01318359375-3.0146484375-1.01318359375-1.2373046875,0-2.193359375.34619140625-2.8681640625,1.03759765625-.67578125.69189453125-1.013671875,1.66455078125-1.013671875,2.91748046875l-.5126953125-5.615234375c.732421875-1.52978515625,1.6240234375-2.7099609375,2.6728515625-3.5400390625,1.05078125-.830078125,2.4130859375-1.2451171875,4.08984375-1.2451171875,2.6689453125,0,4.736328125.8994140625,6.201171875,2.69775390625,1.46484375,1.798828125,2.197265625,4.341796875,2.197265625,7.62939453125v15.380859375h-6.689453125Z"/>
    <path class="cls-1" d="M491.399699190237698,57.21484375v-6.689453125h6.689453125v6.689453125h-6.689453125ZM491.399699190237698,86.0234375v-25.341796875h6.689453125v25.341796875h-6.689453125Z"/>
    <path class="cls-1" d="M502.361613252737698,66.39453125v-5.712890625h13.6474609375v5.712890625h-13.6474609375ZM505.047160127737698,86.0234375v-28.7841796875c0-2.2294921875.5126953125-3.90625,1.5380859375-5.029296875s2.6201171875-1.6845703125,4.78515625-1.6845703125h4.638671875v5.95703125h-2.83203125c-.5048828125,0-.87109375.19140625-1.0986328125.57373046875-.228515625.3828125-.341796875.83447265625-.341796875,1.35498046875v27.6123046875h-6.689453125Z"/>
    <path class="cls-1" d="M520.526652315237698,57.21484375v-6.689453125h6.689453125v6.689453125h-6.689453125ZM520.526652315237698,86.0234375v-25.341796875h6.689453125v25.341796875h-6.689453125Z"/>
    <path class="cls-1" d="M544.159464815237698,86.3896484375c-3.6298828125,0-6.4453125-1.025390625-8.447265625-3.076171875s-3.0029296875-4.939453125-3.0029296875-8.6669921875v-2.7099609375c0-3.6943359375,1.0009765625-6.55517578125,3.0029296875-8.58154296875s4.8173828125-3.03955078125,8.447265625-3.03955078125c2.0830078125,0,3.9677734375.35009765625,5.6513671875,1.0498046875,1.685546875.7001953125,3.0234375,1.701171875,4.0166015625,3.0029296875l-4.3212890625,4.19921875c-.6025390625-.5693359375-1.322265625-1.01318359375-2.16015625-1.33056640625-.8388671875-.3173828125-1.7138671875-.47607421875-2.625-.47607421875-1.693359375,0-3.0029296875.45166015625-3.9306640625,1.35498046875s-1.3916015625,2.17724609375-1.3916015625,3.82080078125v2.7099609375c0,1.69287109375.4638671875,2.9990234375,1.3916015625,3.91845703125.927734375.919921875,2.2373046875,1.37939453125,3.9306640625,1.37939453125.9111328125,0,1.7861328125-.1708984375,2.625-.5126953125.837890625-.341796875,1.5576171875-.830078125,2.16015625-1.46484375l4.3212890625,4.443359375c-.9931640625,1.26953125-2.3310546875,2.25048828125-4.0166015625,2.94189453125-1.68359375.69140625-3.568359375,1.03759765625-5.6513671875,1.03759765625Z"/>
    <path class="cls-1" d="M557.977824190237698,57.21484375v-6.689453125h6.689453125v6.689453125h-6.689453125ZM557.977824190237698,86.0234375v-25.341796875h6.689453125v25.341796875h-6.689453125Z"/>
    <path class="cls-1" d="M581.097941377737698,86.3896484375c-3.4833984375,0-6.1767578125-.96435546875-8.0810546875-2.89306640625s-2.8564453125-4.642578125-2.8564453125-8.14208984375v-4.1259765625c0-3.466796875.9521484375-6.15234375,2.8564453125-8.056640625s4.59765625-2.8564453125,8.0810546875-2.8564453125c3.482421875,0,6.1767578125.9521484375,8.0810546875,2.8564453125s2.8564453125,4.58984375,2.8564453125,8.056640625v4.19921875c0,3.4833984375-.9521484375,6.18115234375-2.8564453125,8.09326171875-1.904296875,1.91259765625-4.5986328125,2.86865234375-8.0810546875,2.86865234375ZM581.073527315237698,79.9443359375c1.3505859375,0,2.400390625-.39453125,3.1494140625-1.18408203125.748046875-.7890625,1.123046875-1.89990234375,1.123046875-3.33251953125v-4.19921875c0-1.416015625-.375-2.5146484375-1.123046875-3.2958984375-.7490234375-.78125-1.798828125-1.171875-3.1494140625-1.171875-1.3349609375,0-2.3720703125.390625-3.1123046875,1.171875-.7412109375.78125-1.111328125,1.8798828125-1.111328125,3.2958984375v4.19921875c0,1.4326171875.3701171875,2.54345703125,1.111328125,3.33251953125.740234375.78955078125,1.77734375,1.18408203125,3.1123046875,1.18408203125Z"/>
  </g>
  <g>
    <path class="cls-1" d="M50.079386690237698,135.4990234375c0,6,2.30029296875,11.2001953125,6.89990234375,15.6005859375,4.60009765625,4.3994140625,10.666015625,7.3994140625,18.2001953125,9,7.53125,1.599609375,13.2998046875,2.3994140625,17.2998046875,2.3994140625,14.13134765625,0,24-3.2001953125,29.60009765625-9.599609375,5.60009765625-6.400390625,8.39990234375-11.3310546875,8.39990234375-14.7998046875,0-5.2001953125-1.69970703125-9.931640625-5.099609375-14.2001953125-3.400390625-4.265625-6.60009765625-8.0654296875-9.60009765625-11.39990234375-3-3.3310546875-5.89990234375-6.39990234375-8.7001953125-9.2001953125-2.7998046875-2.7998046875-5.39990234375-5.43115234375-7.7998046875-7.89990234375-2.39990234375-2.46533203125-4.30029296875-4.46533203125-5.7001953125-6-1.39990234375-1.53125-2.7685546875-3.16552734375-4.10009765625-4.89990234375-1.333984375-1.7314453125-2.36865234375-3.3310546875-3.099609375-4.7998046875-.734375-1.4658203125-1.46875-3.265625-2.2001953125-5.400390625-.734375-2.130859375-1.10009765625-4.130859375-1.10009765625-6,0-5.3310546875,2.4658203125-11.3310546875,7.39990234375-18,4.931640625-6.66552734375,10.900390625-11.16552734375,17.900390625-13.5,7-2.3310546875,15.16552734375-3.5,24.5-3.5h12.7998046875l-3.39990234375,22.2001953125c-.39990234375,3.2001953125-1.53466796875,4.7998046875-3.39990234375,4.7998046875-1.2001953125,0-1.80029296875-1.53125-1.80029296875-4.599609375l.60009765625-4.33447265625c0-2.75634765625-.734375-4.59716796875-2.2001953125-5.515625-1.46875-.9189453125-3.5341796875-1.64404296875-6.19970703125-2.1689453125-2.6689453125-.52490234375-5.26904296875-.85302734375-7.80029296875-.984375-2.5341796875-.13134765625-3.86865234375-.19677734375-4-.19677734375-7.86865234375,0-13.599609375,1.89990234375-17.19970703125,5.7001953125-3.60009765625,3.7998046875-5.39990234375,7.69970703125-5.39990234375,11.69970703125,0,2.53466796875.599609375,4.86865234375,1.7998046875,7,1.2001953125,2.13427734375,2.0654296875,3.60009765625,2.60009765625,4.39990234375.53125.80029296875,1.39990234375,1.80029296875,2.60009765625,3,1.19970703125,1.2001953125,2.2998046875,2.30029296875,3.2998046875,3.30029296875s2.2998046875,2.10009765625,3.89990234375,3.2998046875l7.2001953125,6c18.53125,15.60009765625,27.7998046875,29.46875,27.7998046875,41.599609375,0,11.0693359375-5.5,20.0341796875-16.5,26.900390625-11,6.8681640625-20.43408203125,11.2998046875-28.2998046875,13.2998046875-7.86865234375,2-15.46875,3-22.80029296875,3-11.068359375,0-20.2685546875-2.2001953125-27.599609375-6.599609375-7.33447265625-4.400390625-11-11.1318359375-11-20.2001953125,0-3.0654296875.46533203125-5.9658203125,1.39990234375-8.7001953125.93115234375-2.7314453125,2.60009765625-5.931640625,5-9.599609375,2.39990234375-3.666015625,4.96533203125-6.8662109375,7.69970703125-9.6005859375,2.7314453125-2.7314453125,4.5-4.23095703125,5.30029296875-4.49951171875.7998046875,0,1.19970703125.60009765625,1.19970703125,1.79931640625-.2685546875,1.0693359375-1.734375,3.400390625-4.39990234375,7-2.66845703125,3.6005859375-4,8.3349609375-4,14.2001953125Z"/>
    <path class="cls-1" d="M154.678019502737698,161.298828125c0-2.53125.8310546875-4.765625,2.5-6.69921875,1.66552734375-1.931640625,3.7001953125-2.900390625,6.10009765625-2.900390625,1.60009765625,0,3.43115234375.5341796875,5.5,1.599609375,2.0654296875,1.0693359375,3.10009765625,3.26953125,3.10009765625,6.6005859375,0,2.3994140625-.869140625,4.599609375-2.60009765625,6.599609375-1.734375,2-3.734375,3-6,3-1.46875,0-2.734375-.333984375-3.80029296875-1-3.19970703125-1.4658203125-4.7998046875-3.865234375-4.7998046875-7.2001953125Z"/>
    <path class="cls-1" d="M203.075480440237698,109.8994140625c.400390625.80029296875.60009765625,1.46875.60009765625,2-3.86865234375,7.734375-5.7998046875,14.6689453125-5.7998046875,20.7998046875,0,6.134765625,1.63134765625,11.2998046875,4.89990234375,15.5,3.265625,4.2001953125,7.7314453125,7.4345703125,13.39990234375,9.7001953125,5.66552734375,2.2685546875,11.9658203125,3.3994140625,18.89990234375,3.3994140625,5.2001953125,0,10.83154296875-.7685546875,16.900390625-2.3056640625,6.0654296875-1.5380859375,12.03125-3.712890625,17.89990234375-6.5224609375,5.60009765625-3.07421875,11.86572265625-7.724609375,18.7998046875-13.943359375,6.93115234375-6.21875,12.9658203125-12.2060546875,18.10009765625-17.9560546875,5.13134765625-5.75,9.13134765625-10.3310546875,12-13.74365234375,2.865234375-3.4091796875,5.365234375-6.5185546875,7.5-9.328125,2.130859375-2.8095703125,4.666015625-6.32177734375,7.599609375-10.5341796875,2.931640625-4.212890625,5.265625-7.5908203125,7-10.134765625l12.6005859375-18.859375c5.865234375-8.693359375,12.130859375-16.38427734375,18.7998046875-23.07177734375h1.599609375c1.06640625,0,2.33203125.53466796875,3.80078125,1.60009765625,1.19921875,1.2001953125,1.7998046875,2.46875,1.7998046875,3.7998046875-11.734375,13.734375-20.6005859375,25.234375-26.6005859375,34.5-6,9.26904296875-9.8681640625,15.234375-11.599609375,17.900390625-1.734375,2.66845703125-4.068359375,5.93408203125-7,9.7998046875-2.9345703125,3.86865234375-5.833984375,7.5-8.7001953125,10.89990234375-2.8681640625,3.3994140625-7.068359375,7.8681640625-12.599609375,13.3994140625-5.53466796875,5.53515625-11.7001953125,11.1689453125-18.5,16.900390625-6.80029296875,5.734375-12.369140625,10.134765625-16.7001953125,13.2001953125-4.33447265625,3.068359375-9.5,6.333984375-15.5,9.7998046875s-12.5,6.265625-19.5,8.400390625c-7,2.130859375-13.63427734375,3.19921875-19.89990234375,3.19921875-7.60009765625,0-14.10009765625-1.46875-19.5-4.3994140625-5.39990234375-2.9345703125-9.60009765625-6.900390625-12.60009765625-11.900390625s-4.5-10.7001953125-4.5-17.099609375c0-9.4658203125,3.3310546875-19.1318359375,10-29,3.0654296875-4,5.3310546875-6,6.7998046875-6ZM383.676066377737698,35.099609375c0,1.33447265625-.400390625,2.63427734375-1.2001953125,3.89990234375-.7998046875,1.2685546875-1.6005859375,1.89990234375-2.400390625,1.89990234375-17.734375-2.265625-32.2001953125-3.39990234375-43.3994140625-3.39990234375-35.0693359375,0-52.6005859375,9.5341796875-52.6005859375,28.60009765625,0,8.39990234375,3.06591796875,18.13427734375,9.2001953125,29.19970703125,0,1.06884765625-1,1.60009765625-3,1.60009765625-.5341796875,0-.89990234375-.0654296875-1.10009765625-.19970703125-.19970703125-.13134765625-2.93408203125-4.2314453125-8.19970703125-12.30029296875-5.26904296875-8.0654296875-7.900390625-17.2998046875-7.900390625-27.69970703125,0-9.7314453125,4.5-16.7001953125,13.5-20.900390625,9-4.19970703125,22.30029296875-6.2998046875,39.900390625-6.2998046875,12.265625,0,31,1.33447265625,56.2001953125,4,.6650390625.6689453125,1,1.2001953125,1,1.60009765625ZM327.075480440237698,104.099609375l42,.60009765625-2,5.599609375-44.599609375,1.2001953125,4.599609375-7.39990234375ZM393.475871065237698,34.8994140625l-.6005859375,6.6220703125-2,10.83740234375-6.3994140625,33.11572265625-9.6005859375,49.7685546875-1.3994140625,9.833984375c0,4.150390625,1.130859375,6.2216796875,3.3994140625,6.2216796875,2.400390625,0,6.7314453125-3.3310546875,13-10l1.80078125,1.400390625,1.7998046875,1.400390625c-4.9345703125,6-10.9345703125,11.599609375-18,16.7998046875-7.0693359375,5.2001953125-11.869140625,7.7998046875-14.400390625,7.7998046875-4.7998046875,0-7.2001953125-4.2001953125-7.2001953125-12.599609375v-5.80078125c.400390625-1.865234375,1.56640625-9,3.5-21.3994140625,1.931640625-12.400390625,3.931640625-23.86572265625,6-34.39990234375,2.06640625-10.53125,3.765625-18.765625,5.1005859375-24.7001953125,1.3310546875-5.93115234375,2.5-10.93115234375,3.5-15,1-4.0654296875,1.8994140625-7.53125,2.7001953125-10.39990234375.7998046875-2.86572265625,1.46484375-4.96533203125,2-6.2998046875l2-4.60009765625c9.0654296875,0,14,.46875,14.7998046875,1.39990234375Z"/>
    <path class="cls-1" d="M408.474894502737698,162.63671875l-16,7.412109375,1.2001953125-5.796875,2.2001953125-15.38671875,5-39.1689453125c0-3.3310546875-.400390625-4.99658203125-1.2001953125-4.99658203125-.6689453125,0-2.134765625.7685546875-4.400390625,2.2998046875-2.2685546875,1.5341796875-3.93359375,2.4345703125-5,2.7001953125l-1.19921875.19970703125-1,.2001953125-.80078125-.4033203125c0-1.21240234375.4658203125-2.2216796875,1.400390625-3.03125l12-8.48095703125,9.599609375-6.666015625c2-1.21240234375,3.666015625-1.818359375,5-1.818359375,1.7314453125,0,2.6005859375,1.802734375,2.6005859375,5.4091796875l-.6005859375,6.6123046875c-3.19921875,23.11279296875-5.234375,37.60595703125-6.099609375,43.48095703125-.869140625,5.8779296875-1.7685546875,11.6904296875-2.7001953125,17.4345703125ZM423.675089815237698,105.8994140625c5.0654296875-4.375,10.099609375-8.16845703125,15.099609375-11.38134765625,5-3.21240234375,8.5-4.818359375,10.5-4.818359375,3.06640625,0,4.6005859375,3.08740234375,4.6005859375,9.255859375,0,7.916015625-2.9345703125,25.28759765625-8.7998046875,52.11572265625,0,3.21875.599609375,4.828125,1.7998046875,4.828125,2.3994140625,0,6.3994140625-3.265625,12-9.7998046875l1.2001953125-.400390625c.7998046875.134765625,1.265625.2685546875,1.3994140625.400390625l.400390625,1.3994140625-.400390625,1.2001953125c-7.068359375,8.400390625-13.1689453125,13.9345703125-18.2998046875,16.599609375-5.134765625,2.6689453125-8.7001953125,4-10.7001953125,4-2.3994140625,0-3.599609375-2.265625-3.599609375-6.7998046875v-3.2998046875c0-.865234375.265625-2.8310546875.7998046875-5.900390625l2.599609375-17.3994140625,3.2001953125-22.19970703125c0-5.2001953125-.599609375-7.80029296875-1.7998046875-7.80029296875-1.46875,0-5.1689453125,2.53466796875-11.099609375,7.60009765625-5.9345703125,5.06884765625-9.7001953125,7.60009765625-11.30078125,7.60009765625-.66796875-.666015625-1-1.2001953125-1-1.6005859375,0-2.3994140625,1.2001953125-4.130859375,3.6005859375-5.2001953125l9.7998046875-8.3994140625Z"/>
    <path class="cls-1" d="M481.073527315237698,162.63671875l-16,7.412109375,1.2001953125-5.796875,2.2001953125-15.38671875,5-39.1689453125c0-3.3310546875-.400390625-4.99658203125-1.2001953125-4.99658203125-.6689453125,0-2.134765625.7685546875-4.400390625,2.2998046875-2.2685546875,1.5341796875-3.93359375,2.4345703125-5,2.7001953125l-1.19921875.19970703125-1,.2001953125-.80078125-.4033203125c0-1.21240234375.4658203125-2.2216796875,1.400390625-3.03125l12-8.48095703125,9.599609375-6.666015625c2-1.21240234375,3.666015625-1.818359375,5-1.818359375,1.7314453125,0,2.6005859375,1.802734375,2.6005859375,5.4091796875l-.6005859375,6.6123046875c-3.19921875,23.11279296875-5.234375,37.60595703125-6.099609375,43.48095703125-.869140625,5.8779296875-1.7685546875,11.6904296875-2.7001953125,17.4345703125ZM496.273722627737698,105.8994140625c5.0654296875-4.375,10.099609375-8.16845703125,15.099609375-11.38134765625,5-3.21240234375,8.5-4.818359375,10.5-4.818359375,3.06640625,0,4.6005859375,3.08740234375,4.6005859375,9.255859375,0,7.916015625-2.9345703125,25.28759765625-8.7998046875,52.11572265625,0,3.21875.599609375,4.828125,1.7998046875,4.828125,2.3994140625,0,6.3994140625-3.265625,12-9.7998046875l1.2001953125-.400390625c.7998046875.134765625,1.265625.2685546875,1.3994140625.400390625l.400390625,1.3994140625-.400390625,1.2001953125c-7.068359375,8.400390625-13.1689453125,13.9345703125-18.2998046875,16.599609375-5.134765625,2.6689453125-8.7001953125,4-10.7001953125,4-2.3994140625,0-3.599609375-2.265625-3.599609375-6.7998046875v-3.2998046875c0-.865234375.265625-2.8310546875.7998046875-5.900390625l2.599609375-17.3994140625,3.2001953125-22.19970703125c0-5.2001953125-.599609375-7.80029296875-1.7998046875-7.80029296875-1.46875,0-5.1689453125,2.53466796875-11.099609375,7.60009765625-5.9345703125,5.06884765625-9.7001953125,7.60009765625-11.30078125,7.60009765625-.66796875-.666015625-1-1.2001953125-1-1.6005859375,0-2.3994140625,1.2001953125-4.130859375,3.6005859375-5.2001953125l9.7998046875-8.3994140625Z"/>
    <path class="cls-1" d="M572.271769502737698,100.29931640625h-4.80078125c-2.66796875,0-5.0341796875.56884765625-7.099609375,1.7001953125-2.068359375,1.13427734375-4,3.4345703125-5.7998046875,6.89990234375-1.7998046875,3.46875-3.400390625,8.833984375-4.7998046875,16.099609375-1.400390625,7.2685546875-2.1005859375,13.369140625-2.1005859375,18.2998046875,0,7.0693359375,1.666015625,10.6005859375,5,10.6005859375,2.7998046875,0,6.1318359375-2.0498046875,10-6.150390625,3.8662109375-4.099609375,7.2001953125-8.1025390625,10-12.0029296875l4.6005859375-5.646484375c.53125.9375.7998046875,1.7431640625.7998046875,2.412109375,0,2.28125-.6689453125,4.5595703125-2,6.837890625-1.3349609375,2.27734375-3.0693359375,4.4873046875-5.2001953125,6.630859375l-6.7998046875,7.4404296875c-9.734375,10.1875-17.3349609375,15.2783203125-22.7998046875,15.2783203125-5.869140625,0-8.80078125-5.265625-8.80078125-15.7998046875,0-.931640625.06640625-2.3662109375.2001953125-4.2998046875.1318359375-1.931640625.431640625-4.3662109375.900390625-7.30078125.4658203125-2.9306640625,1.1650390625-6.19921875,2.099609375-9.7998046875.931640625-3.599609375,2.4658203125-8.2314453125,4.6005859375-13.8994140625,2.130859375-5.66552734375,5.130859375-10.60009765625,9-14.80029296875,3.865234375-4.19970703125,7.3994140625-7.130859375,10.599609375-8.7998046875,3.2001953125-1.66552734375,6.599609375-2.5,10.2001953125-2.5l15.2001953125-1.39990234375c4,0,6,1.02197265625,6,3.05908203125,0,1.087890625-.369140625,2.2783203125-1.1005859375,3.572265625-.734375,1.29345703125-1.6337890625,2.208984375-2.7001953125,2.7529296875l-3.7998046875.8154296875h-11.3994140625ZM588.428019502737698,123.4931640625l-3.359375,21.40625-.796875,8.2001953125c0,.7998046875.099609375,1.3681640625.2998046875,1.69921875.2001953125.3349609375.365234375.5693359375.5.7001953125l4.2001953125-3c.9306640625-.9306640625,2-1.865234375,3.19921875-2.7998046875,1.2001953125-.931640625,2.5-1.865234375,3.900390625-2.7998046875,1.400390625-.931640625,2.5654296875-1.400390625,3.5-1.400390625.666015625.400390625,1,.734375,1,1-.134765625.400390625-.333984375.7998046875-.599609375,1.2001953125-.26953125.400390625-.6689453125.9345703125-1.2001953125,1.599609375-8.400390625,7.46875-14.46875,12.46875-18.2001953125,15-3.734375,2.9345703125-6.6689453125,4.400390625-8.7998046875,4.400390625-2.2685546875,0-3.400390625-2.46875-3.400390625-7.40625l.5283203125-9.40625,1.994140625-16.599609375,2.3212890625-17.3818359375c.2626953125-3.3310546875.6591796875-6.1650390625,1.1904296875-8.49951171875s1.42578125-5.06884765625,2.6845703125-8.203125c1.259765625-3.13427734375,2.884765625-5.703125,4.875-7.703125,2.25-1.86572265625,4.171875-2.7998046875,5.765625-2.7998046875,2.931640625,0,4.3974609375,2.333984375,4.3974609375,7l-4,25.79345703125Z"/>
  </g>
</svg>